<svg width="40" height="40" viewBox="0 0 40 40" fill="none" xmlns="http://www.w3.org/2000/svg">
<rect width="40" height="40" rx="20" fill="#F7931A"/>
<path fill-rule="evenodd" clip-rule="evenodd" d="M14.2146 9.13261L18.8109 10.3635L19.8382 6.53442L22.1364 7.15806L21.1491 10.829L23.0236 11.3326L24.0127 7.6217L26.3509 8.24715L25.3436 11.9781C25.3436 11.9781 29.1618 12.8235 30.06 15.929C30.9582 19.0344 28.0855 20.6653 27.1982 20.7271C27.1982 20.7271 30.5436 22.5617 29.3946 26.1708C28.2455 29.7799 24.7182 30.4253 21.0073 29.5981L20 33.4671L17.6618 32.8417L18.6891 29.0326L16.8345 28.5271L15.8073 32.3635L13.4873 31.7399L14.5164 27.9217L9.79819 26.649L10.9873 24.009C10.9873 24.009 12.3182 24.3726 12.8218 24.4926C13.3255 24.6126 13.6491 24.089 13.7909 23.5653C13.9327 23.0417 16.0691 14.3635 16.2709 13.649C16.4727 12.9344 16.3909 12.3762 15.5436 12.1562C14.6964 11.9362 13.5436 11.5926 13.5436 11.5926L14.2146 9.13261ZM18.8509 20.6253L17.5782 25.6853C17.5782 25.6853 23.8891 27.9635 24.6964 24.7581C25.5036 21.5526 18.8509 20.6253 18.8509 20.6253ZM19.4364 18.2253L20.6855 13.589C20.6855 13.589 26.0891 14.5562 25.4236 17.1362C24.7582 19.7162 21.5727 18.7272 19.4364 18.2253Z" fill="white"/>
</svg>
