<svg width="663" height="343" viewBox="0 0 663 343" fill="none" xmlns="http://www.w3.org/2000/svg">
<g clip-path="url(#clip0_4477_9779)">
<rect width="663" height="343" rx="20" fill="url(#paint0_linear_4477_9779)" fill-opacity="0.2"/>
<path d="M12.6501 65.0134V71.7541H11.3182V66.5472L9.71808 67.0554V66.0066L12.5068 65.0134H12.6501ZM19.3745 67.7993V68.9635C19.3745 69.4687 19.3205 69.9045 19.2126 70.271C19.1047 70.6345 18.949 70.9333 18.7455 71.1674C18.5451 71.3984 18.3062 71.5693 18.0287 71.6802C17.7512 71.7911 17.4429 71.8465 17.1037 71.8465C16.8325 71.8465 16.5797 71.8126 16.3453 71.7449C16.111 71.674 15.8998 71.5647 15.7117 71.4169C15.5267 71.269 15.3664 71.0826 15.2308 70.8578C15.0982 70.6299 14.9964 70.3589 14.9255 70.0446C14.8546 69.7305 14.8192 69.3702 14.8192 68.9635V67.7993C14.8192 67.2942 14.8731 66.8614 14.981 66.501C15.092 66.1376 15.2477 65.8403 15.4481 65.6093C15.6516 65.3783 15.8921 65.2089 16.1695 65.1011C16.4471 64.9902 16.7553 64.9348 17.0945 64.9348C17.3659 64.9348 17.6171 64.9702 17.8484 65.041C18.0827 65.1088 18.2938 65.2151 18.4819 65.3598C18.67 65.5046 18.8303 65.6909 18.9629 65.9189C19.0955 66.1438 19.1972 66.4133 19.2681 66.7274C19.3391 67.0385 19.3745 67.3958 19.3745 67.7993ZM18.0379 69.1391V67.6191C18.0379 67.3758 18.024 67.1632 17.9963 66.9815C17.9716 66.7998 17.9331 66.6458 17.8807 66.5195C17.8283 66.3902 17.7636 66.2854 17.6865 66.2053C17.6094 66.1252 17.5215 66.0667 17.4228 66.0297C17.3242 65.9928 17.2147 65.9743 17.0945 65.9743C16.9434 65.9743 16.8093 66.0036 16.6921 66.0621C16.5781 66.1206 16.481 66.2146 16.4008 66.344C16.3206 66.4702 16.259 66.6396 16.2158 66.8521C16.1757 67.0616 16.1557 67.3172 16.1557 67.6191V69.1391C16.1557 69.3825 16.168 69.5965 16.1927 69.7813C16.2205 69.9661 16.2605 70.1248 16.313 70.2572C16.3684 70.3865 16.4332 70.4928 16.5072 70.576C16.5842 70.6561 16.6721 70.7146 16.7707 70.7515C16.8726 70.7885 16.9835 70.807 17.1037 70.807C17.2517 70.807 17.3828 70.7777 17.4969 70.7192C17.614 70.6576 17.7127 70.5621 17.7929 70.4328C17.8761 70.3003 17.9378 70.1278 17.9778 69.9153C18.0179 69.7028 18.0379 69.444 18.0379 69.1391ZM24.8132 67.7993V68.9635C24.8132 69.4687 24.7592 69.9045 24.6513 70.271C24.5434 70.6345 24.3877 70.9333 24.1842 71.1674C23.9838 71.3984 23.7449 71.5693 23.4674 71.6802C23.1899 71.7911 22.8815 71.8465 22.5424 71.8465C22.2711 71.8465 22.0183 71.8126 21.784 71.7449C21.5496 71.674 21.3385 71.5647 21.1504 71.4169C20.9654 71.269 20.8051 71.0826 20.6694 70.8578C20.5368 70.6299 20.4351 70.3589 20.3642 70.0446C20.2932 69.7305 20.2578 69.3702 20.2578 68.9635V67.7993C20.2578 67.2942 20.3118 66.8614 20.4197 66.501C20.5307 66.1376 20.6864 65.8403 20.8868 65.6093C21.0903 65.3783 21.3308 65.2089 21.6083 65.1011C21.8857 64.9902 22.194 64.9348 22.5332 64.9348C22.8045 64.9348 23.0557 64.9702 23.287 65.041C23.5213 65.1088 23.7326 65.2151 23.9206 65.3598C24.1087 65.5046 24.269 65.6909 24.4016 65.9189C24.5342 66.1438 24.6359 66.4133 24.7068 66.7274C24.7777 67.0385 24.8132 67.3958 24.8132 67.7993ZM23.4766 69.1391V67.6191C23.4766 67.3758 23.4628 67.1632 23.435 66.9815C23.4104 66.7998 23.3718 66.6458 23.3194 66.5195C23.267 66.3902 23.2022 66.2854 23.1251 66.2053C23.0481 66.1252 22.9602 66.0667 22.8615 66.0297C22.7628 65.9928 22.6534 65.9743 22.5332 65.9743C22.3821 65.9743 22.248 66.0036 22.1309 66.0621C22.0167 66.1206 21.9196 66.2146 21.8395 66.344C21.7593 66.4702 21.6976 66.6396 21.6544 66.8521C21.6144 67.0616 21.5944 67.3172 21.5944 67.6191V69.1391C21.5944 69.3825 21.6067 69.5965 21.6313 69.7813C21.6591 69.9661 21.6992 70.1248 21.7516 70.2572C21.8071 70.3865 21.8718 70.4928 21.9459 70.576C22.0229 70.6561 22.1108 70.7146 22.2095 70.7515C22.3112 70.7885 22.4222 70.807 22.5424 70.807C22.6904 70.807 22.8215 70.7777 22.9355 70.7192C23.0527 70.6576 23.1513 70.5621 23.2315 70.4328C23.3148 70.3003 23.3764 70.1278 23.4165 69.9153C23.4566 69.7028 23.4766 69.444 23.4766 69.1391Z" fill="#ED1D25"/>
<path d="M19.3791 117.221C19.3791 117.643 19.2804 117.998 19.0831 118.289C18.8858 118.575 18.6145 118.792 18.2692 118.94C17.927 119.084 17.5385 119.157 17.1038 119.157C16.669 119.157 16.279 119.084 15.9337 118.94C15.5884 118.792 15.3156 118.575 15.1152 118.289C14.9148 117.998 14.8145 117.643 14.8145 117.221C14.8145 116.938 14.8716 116.682 14.9856 116.454C15.0998 116.223 15.2585 116.026 15.462 115.862C15.6686 115.697 15.9106 115.57 16.1881 115.484C16.4655 115.395 16.7677 115.35 17.0945 115.35C17.5323 115.35 17.9239 115.427 18.2692 115.581C18.6145 115.735 18.8858 115.952 19.0831 116.232C19.2804 116.513 19.3791 116.842 19.3791 117.221ZM18.038 117.133C18.038 116.927 17.9979 116.749 17.9177 116.602C17.8406 116.451 17.7312 116.335 17.5894 116.256C17.4476 116.175 17.2826 116.135 17.0945 116.135C16.9064 116.135 16.7415 116.175 16.5996 116.256C16.4579 116.335 16.3468 116.451 16.2667 116.602C16.1896 116.749 16.1511 116.927 16.1511 117.133C16.1511 117.337 16.1896 117.512 16.2667 117.66C16.3468 117.808 16.4579 117.922 16.5996 118.002C16.7446 118.079 16.9126 118.117 17.1038 118.117C17.2949 118.117 17.4599 118.079 17.5986 118.002C17.7405 117.922 17.8484 117.808 17.9223 117.66C17.9994 117.512 18.038 117.337 18.038 117.133ZM19.2358 114.121C19.2358 114.463 19.1449 114.766 18.9629 115.031C18.781 115.293 18.5282 115.498 18.2045 115.645C17.8838 115.794 17.5169 115.867 17.1038 115.867C16.6876 115.867 16.3176 115.794 15.9939 115.645C15.6701 115.498 15.4173 115.293 15.2354 115.031C15.0535 114.766 14.9625 114.463 14.9625 114.121C14.9625 113.714 15.0535 113.372 15.2354 113.095C15.4204 112.815 15.6732 112.603 15.9939 112.458C16.3176 112.313 16.6845 112.241 17.0945 112.241C17.5107 112.241 17.8792 112.313 18.1998 112.458C18.5236 112.603 18.7764 112.815 18.9583 113.095C19.1433 113.372 19.2358 113.714 19.2358 114.121ZM17.9039 114.181C17.9039 113.999 17.8715 113.842 17.8067 113.71C17.742 113.574 17.6495 113.469 17.5293 113.396C17.4121 113.322 17.2672 113.285 17.0945 113.285C16.9281 113.285 16.7846 113.32 16.6644 113.391C16.5472 113.462 16.4563 113.565 16.3916 113.7C16.3299 113.833 16.2991 113.993 16.2991 114.181C16.2991 114.363 16.3299 114.523 16.3916 114.661C16.4563 114.797 16.5488 114.904 16.669 114.98C16.7893 115.057 16.9342 115.096 17.1038 115.096C17.2734 115.096 17.4167 115.057 17.5338 114.98C17.6541 114.904 17.7451 114.797 17.8067 114.661C17.8715 114.523 17.9039 114.363 17.9039 114.181ZM24.8132 115.109V116.274C24.8132 116.779 24.7592 117.215 24.6513 117.581C24.5434 117.945 24.3877 118.244 24.1842 118.478C23.9838 118.709 23.7449 118.88 23.4674 118.99C23.1899 119.102 22.8816 119.157 22.5424 119.157C22.2711 119.157 22.0183 119.123 21.784 119.055C21.5496 118.984 21.3385 118.875 21.1504 118.727C20.9654 118.58 20.8051 118.393 20.6694 118.168C20.5368 117.94 20.4351 117.669 20.3642 117.355C20.2933 117.041 20.2578 116.681 20.2578 116.274V115.109C20.2578 114.605 20.3118 114.172 20.4197 113.811C20.5307 113.448 20.6864 113.151 20.8868 112.92C21.0903 112.689 21.3308 112.519 21.6083 112.411C21.8857 112.301 22.194 112.245 22.5332 112.245C22.8045 112.245 23.0558 112.28 23.287 112.351C23.5214 112.419 23.7326 112.525 23.9206 112.67C24.1087 112.815 24.269 113.002 24.4016 113.23C24.5342 113.454 24.6359 113.724 24.7068 114.038C24.7777 114.349 24.8132 114.706 24.8132 115.109ZM23.4766 116.45V114.93C23.4766 114.686 23.4628 114.474 23.435 114.292C23.4104 114.11 23.3718 113.956 23.3194 113.83C23.267 113.7 23.2023 113.595 23.1251 113.516C23.0481 113.435 22.9602 113.377 22.8615 113.34C22.7629 113.303 22.6535 113.285 22.5332 113.285C22.3821 113.285 22.248 113.314 22.1309 113.372C22.0167 113.431 21.9197 113.525 21.8395 113.655C21.7594 113.781 21.6976 113.95 21.6545 114.162C21.6144 114.372 21.5944 114.628 21.5944 114.93V116.45C21.5944 116.693 21.6067 116.907 21.6313 117.092C21.6591 117.276 21.6992 117.435 21.7516 117.568C21.8071 117.697 21.8718 117.803 21.9459 117.886C22.0229 117.966 22.1108 118.025 22.2095 118.062C22.3112 118.099 22.4222 118.117 22.5424 118.117C22.6904 118.117 22.8215 118.088 22.9356 118.03C23.0527 117.968 23.1513 117.872 23.2315 117.743C23.3148 117.61 23.3764 117.439 23.4165 117.226C23.4566 117.013 23.4766 116.754 23.4766 116.45Z" fill="#ED1D25"/>
<path d="M19.5594 163.861V164.906H14.7082L14.6434 164.097L17.4506 159.648H18.5097L17.3627 161.565L15.9661 163.861H19.5594ZM18.7964 159.648V166.375H17.4645V159.648H18.7964ZM24.8132 162.42V163.584C24.8132 164.09 24.7592 164.525 24.6513 164.891C24.5434 165.255 24.3877 165.554 24.1842 165.788C23.9838 166.019 23.7449 166.19 23.4674 166.301C23.1899 166.412 22.8815 166.467 22.5424 166.467C22.2711 166.467 22.0183 166.433 21.784 166.365C21.5496 166.294 21.3385 166.185 21.1504 166.037C20.9654 165.89 20.8051 165.703 20.6694 165.478C20.5368 165.25 20.4351 164.979 20.3642 164.665C20.2932 164.351 20.2578 163.991 20.2578 163.584V162.42C20.2578 161.915 20.3118 161.482 20.4197 161.122C20.5307 160.758 20.6864 160.461 20.8868 160.23C21.0903 159.999 21.3308 159.829 21.6083 159.721C21.8857 159.611 22.194 159.556 22.5332 159.556C22.8045 159.556 23.0557 159.59 23.287 159.661C23.5213 159.729 23.7325 159.836 23.9206 159.981C24.1086 160.125 24.2689 160.312 24.4015 160.54C24.5341 160.764 24.6359 161.034 24.7068 161.348C24.7777 161.659 24.8132 162.017 24.8132 162.42ZM23.4766 163.76V162.24C23.4766 161.996 23.4628 161.784 23.435 161.602C23.4104 161.42 23.3718 161.266 23.3194 161.14C23.267 161.01 23.2022 160.906 23.1251 160.826C23.0481 160.746 22.9602 160.687 22.8615 160.65C22.7628 160.613 22.6534 160.595 22.5332 160.595C22.3821 160.595 22.248 160.624 22.1309 160.682C22.0167 160.741 21.9196 160.835 21.8394 160.965C21.7593 161.091 21.6976 161.26 21.6544 161.473C21.6144 161.682 21.5944 161.938 21.5944 162.24V163.76C21.5944 164.003 21.6067 164.217 21.6313 164.402C21.6591 164.586 21.6992 164.746 21.7516 164.878C21.8071 165.007 21.8718 165.113 21.9458 165.197C22.0229 165.276 22.1108 165.335 22.2095 165.372C22.3112 165.409 22.4222 165.428 22.5424 165.428C22.6904 165.428 22.8215 165.398 22.9355 165.34C23.0527 165.278 23.1513 165.182 23.2315 165.053C23.3148 164.921 23.3764 164.749 23.4165 164.536C23.4566 164.323 23.4766 164.064 23.4766 163.76Z" fill="#ED1D25"/>
<path d="M19.4485 212.646V213.685H14.8423V212.798L17.0206 210.465C17.2394 210.221 17.412 210.007 17.5385 209.823C17.6649 209.634 17.7559 209.467 17.8113 209.319C17.8699 209.168 17.8992 209.025 17.8992 208.889C17.8992 208.686 17.8653 208.512 17.7975 208.367C17.7297 208.219 17.6294 208.106 17.4969 208.025C17.3674 207.946 17.2071 207.905 17.0159 207.905C16.8124 207.905 16.6367 207.954 16.4887 208.053C16.3437 208.151 16.2328 208.289 16.1557 208.464C16.0817 208.64 16.0447 208.839 16.0447 209.06H14.7082C14.7082 208.66 14.8038 208.293 14.9949 207.96C15.186 207.625 15.4558 207.359 15.8042 207.162C16.1526 206.961 16.5658 206.861 17.0437 206.861C17.5154 206.861 17.9131 206.938 18.2369 207.092C18.5636 207.243 18.8103 207.461 18.9768 207.748C19.1463 208.031 19.2311 208.371 19.2311 208.765C19.2311 208.986 19.1957 209.203 19.1248 209.416C19.0538 209.626 18.9521 209.835 18.8196 210.045C18.6901 210.251 18.5328 210.46 18.3478 210.673C18.1628 210.885 17.9578 211.106 17.7327 211.334L16.5627 212.646H19.4485ZM24.8132 209.73V210.895C24.8132 211.4 24.7592 211.835 24.6513 212.202C24.5434 212.565 24.3877 212.864 24.1842 213.098C23.9838 213.329 23.7449 213.501 23.4674 213.611C23.1899 213.722 22.8816 213.777 22.5424 213.777C22.2711 213.777 22.0183 213.743 21.784 213.676C21.5496 213.605 21.3385 213.496 21.1504 213.348C20.9654 213.2 20.8051 213.013 20.6694 212.789C20.5368 212.561 20.4351 212.289 20.3642 211.976C20.2933 211.662 20.2578 211.301 20.2578 210.895V209.73C20.2578 209.225 20.3118 208.792 20.4197 208.432C20.5307 208.069 20.6864 207.771 20.8868 207.54C21.0903 207.309 21.3308 207.14 21.6083 207.032C21.8857 206.921 22.194 206.866 22.5332 206.866C22.8045 206.866 23.0558 206.901 23.287 206.972C23.5214 207.04 23.7326 207.146 23.9206 207.291C24.1087 207.435 24.269 207.622 24.4016 207.85C24.5342 208.075 24.6359 208.345 24.7068 208.658C24.7777 208.97 24.8132 209.327 24.8132 209.73ZM23.4766 211.07V209.55C23.4766 209.306 23.4628 209.094 23.435 208.912C23.4104 208.731 23.3718 208.576 23.3194 208.45C23.267 208.321 23.2022 208.216 23.1251 208.136C23.0481 208.056 22.9602 207.998 22.8615 207.96C22.7629 207.923 22.6535 207.905 22.5332 207.905C22.3821 207.905 22.248 207.934 22.1309 207.993C22.0167 208.051 21.9197 208.146 21.8395 208.275C21.7594 208.401 21.6976 208.571 21.6545 208.783C21.6144 208.993 21.5944 209.248 21.5944 209.55V211.07C21.5944 211.313 21.6067 211.528 21.6313 211.712C21.6591 211.897 21.6992 212.056 21.7516 212.188C21.8071 212.318 21.8718 212.423 21.9459 212.507C22.0229 212.587 22.1108 212.646 22.2095 212.683C22.3112 212.719 22.4222 212.738 22.5424 212.738C22.6904 212.738 22.8215 212.709 22.9355 212.651C23.0527 212.588 23.1513 212.493 23.2315 212.364C23.3148 212.231 23.3764 212.059 23.4165 211.846C23.4566 211.633 23.4766 211.375 23.4766 211.07Z" fill="#ED1D25"/>
<path d="M24.8132 257.04V258.205C24.8132 258.71 24.7592 259.145 24.6513 259.512C24.5434 259.876 24.3877 260.174 24.1842 260.409C23.9838 260.64 23.7449 260.811 23.4674 260.921C23.1899 261.032 22.8816 261.088 22.5424 261.088C22.2711 261.088 22.0183 261.054 21.784 260.986C21.5496 260.915 21.3385 260.806 21.1504 260.658C20.9654 260.51 20.8051 260.323 20.6694 260.099C20.5368 259.871 20.4351 259.6 20.3642 259.286C20.2933 258.972 20.2578 258.612 20.2578 258.205V257.04C20.2578 256.535 20.3118 256.103 20.4197 255.742C20.5307 255.379 20.6864 255.081 20.8868 254.85C21.0903 254.619 21.3308 254.45 21.6083 254.342C21.8857 254.231 22.194 254.176 22.5332 254.176C22.8045 254.176 23.0558 254.211 23.287 254.282C23.5214 254.35 23.7326 254.456 23.9206 254.601C24.1087 254.746 24.269 254.932 24.4016 255.16C24.5342 255.385 24.6359 255.655 24.7068 255.969C24.7777 256.28 24.8132 256.637 24.8132 257.04ZM23.4766 258.381V256.86C23.4766 256.617 23.4628 256.405 23.435 256.222C23.4104 256.041 23.3718 255.887 23.3194 255.76C23.267 255.631 23.2022 255.526 23.1251 255.447C23.0481 255.366 22.9602 255.308 22.8615 255.271C22.7628 255.234 22.6535 255.216 22.5332 255.216C22.3821 255.216 22.248 255.245 22.1309 255.303C22.0167 255.361 21.9197 255.456 21.8395 255.585C21.7594 255.712 21.6976 255.881 21.6545 256.093C21.6144 256.303 21.5944 256.558 21.5944 256.86V258.381C21.5944 258.623 21.6067 258.838 21.6313 259.022C21.6591 259.207 21.6992 259.366 21.7516 259.499C21.8071 259.628 21.8718 259.734 21.9459 259.817C22.0229 259.897 22.1108 259.956 22.2095 259.993C22.3112 260.029 22.4222 260.048 22.5424 260.048C22.6904 260.048 22.8215 260.019 22.9355 259.961C23.0527 259.898 23.1513 259.803 23.2315 259.674C23.3148 259.541 23.3764 259.369 23.4165 259.156C23.4566 258.944 23.4766 258.685 23.4766 258.381Z" fill="#ED1D25"/>
<path d="M41.0428 68.2058H656.686" stroke="#ED1D25" stroke-linecap="square" stroke-dasharray="2 3"/>
<path d="M41.0428 115.516H656.686" stroke="#ED1D25" stroke-linecap="square" stroke-dasharray="2 3"/>
<path d="M41.0428 162.826H656.686" stroke="#ED1D25" stroke-linecap="square" stroke-dasharray="2 3"/>
<path d="M41.0428 210.137H656.686" stroke="#ED1D25" stroke-linecap="square" stroke-dasharray="2 3"/>
<path d="M41.0428 257.447H656.686" stroke="#ED1D25" stroke-linecap="square" stroke-dasharray="2 3"/>
<path d="M44.4266 282.585V277.924H45.8094V282.585C45.8094 283.035 45.7108 283.421 45.5134 283.745C45.3161 284.065 45.0463 284.312 44.7041 284.484C44.3649 284.657 43.9826 284.743 43.5571 284.743C43.1163 284.743 42.7262 284.669 42.3871 284.521C42.0479 284.373 41.7812 284.147 41.5871 283.842C41.3928 283.534 41.2957 283.145 41.2957 282.673H42.6877C42.6877 282.92 42.7217 283.115 42.7895 283.26C42.8603 283.405 42.9606 283.508 43.0901 283.57C43.2195 283.631 43.3753 283.662 43.5571 283.662C43.7329 283.662 43.8855 283.62 44.015 283.537C44.1445 283.454 44.2447 283.332 44.3156 283.172C44.3896 283.012 44.4266 282.817 44.4266 282.585ZM49.6109 283.523V281.296C49.6109 281.136 49.5847 280.999 49.5323 280.885C49.4799 280.768 49.3981 280.677 49.2872 280.613C49.1793 280.548 49.039 280.516 48.8663 280.516C48.7183 280.516 48.5904 280.542 48.4825 280.594C48.3746 280.643 48.2913 280.716 48.2328 280.811C48.1742 280.904 48.1448 281.013 48.1448 281.139H46.8129C46.8129 280.926 46.8622 280.725 46.9609 280.534C47.0596 280.343 47.203 280.175 47.3911 280.031C47.5791 279.882 47.8027 279.767 48.0616 279.684C48.3237 279.601 48.6166 279.559 48.9404 279.559C49.3288 279.559 49.6741 279.624 49.9763 279.753C50.2784 279.882 50.5159 280.076 50.6885 280.335C50.8642 280.594 50.9521 280.918 50.9521 281.306V283.445C50.9521 283.719 50.9691 283.944 51.0029 284.119C51.0369 284.292 51.0862 284.442 51.1509 284.572V284.651H49.8052C49.7404 284.515 49.691 284.345 49.6572 284.142C49.6263 283.936 49.6109 283.73 49.6109 283.523ZM49.7866 281.606L49.7959 282.359H49.0513C48.8756 282.359 48.723 282.379 48.5935 282.419C48.4639 282.459 48.3576 282.516 48.2744 282.59C48.1911 282.661 48.1294 282.744 48.0894 282.839C48.0524 282.935 48.0339 283.04 48.0339 283.154C48.0339 283.268 48.0601 283.371 48.1125 283.463C48.1649 283.552 48.2404 283.623 48.3391 283.676C48.4377 283.725 48.5534 283.749 48.686 283.749C48.8864 283.749 49.0606 283.71 49.2086 283.629C49.3565 283.55 49.4706 283.451 49.5508 283.334C49.6341 283.217 49.6772 283.106 49.6803 283.001L50.0318 283.565C49.9825 283.691 49.9146 283.822 49.8283 283.957C49.745 284.093 49.6386 284.221 49.5092 284.341C49.3797 284.458 49.2239 284.555 49.0421 284.632C48.8602 284.706 48.6444 284.743 48.3946 284.743C48.077 284.743 47.7888 284.68 47.5298 284.554C47.2739 284.424 47.0704 284.247 46.9193 284.022C46.7713 283.794 46.6974 283.536 46.6974 283.246C46.6974 282.984 46.7467 282.752 46.8454 282.548C46.944 282.345 47.0889 282.174 47.28 282.036C47.4743 281.894 47.7163 281.788 48.0062 281.717C48.296 281.643 48.632 281.606 49.0143 281.606H49.7866ZM53.2829 280.719V284.651H51.951V279.651H53.1997L53.2829 280.719ZM53.0887 281.975H52.728C52.728 281.606 52.7757 281.273 52.8713 280.978C52.9669 280.679 53.101 280.425 53.2737 280.215C53.4463 280.002 53.6514 279.841 53.8888 279.73C54.1293 279.616 54.3975 279.559 54.6935 279.559C54.9278 279.559 55.1421 279.593 55.3363 279.661C55.5306 279.729 55.697 279.837 55.8358 279.984C55.9776 280.132 56.0855 280.328 56.1595 280.571C56.2366 280.814 56.2751 281.112 56.2751 281.463V284.651H54.934V281.458C54.934 281.236 54.9031 281.064 54.8415 280.941C54.7798 280.818 54.6889 280.731 54.5686 280.682C54.4515 280.629 54.3066 280.603 54.1339 280.603C53.9551 280.603 53.7994 280.639 53.6668 280.71C53.5373 280.781 53.4294 280.879 53.3431 281.005C53.2598 281.128 53.1966 281.273 53.1535 281.44C53.1103 281.606 53.0887 281.784 53.0887 281.975Z" fill="#ED1D25"/>
<path d="M97.1129 277.924V284.651H95.7253V277.924H97.1129ZM99.7957 280.797V281.878H96.734V280.797H99.7957ZM100.119 277.924V279.01H96.734V277.924H100.119ZM103.042 284.743C102.654 284.743 102.305 284.681 101.997 284.558C101.688 284.432 101.426 284.258 101.211 284.036C100.998 283.814 100.834 283.557 100.721 283.264C100.606 282.969 100.549 282.655 100.549 282.322V282.137C100.549 281.758 100.603 281.412 100.711 281.097C100.819 280.784 100.973 280.511 101.174 280.28C101.377 280.049 101.624 279.871 101.913 279.748C102.204 279.622 102.531 279.559 102.894 279.559C103.249 279.559 103.563 279.617 103.838 279.735C104.112 279.852 104.342 280.018 104.527 280.233C104.715 280.449 104.857 280.708 104.952 281.01C105.048 281.309 105.096 281.642 105.096 282.007V282.563H101.119V281.675H103.786V281.574C103.786 281.388 103.752 281.224 103.685 281.079C103.62 280.931 103.521 280.814 103.389 280.728C103.257 280.642 103.087 280.598 102.88 280.598C102.704 280.598 102.553 280.637 102.427 280.714C102.301 280.791 102.197 280.899 102.117 281.038C102.04 281.176 101.981 281.34 101.941 281.527C101.905 281.712 101.886 281.915 101.886 282.137V282.322C101.886 282.522 101.913 282.707 101.969 282.876C102.028 283.046 102.109 283.192 102.214 283.316C102.322 283.439 102.452 283.534 102.602 283.602C102.757 283.67 102.931 283.704 103.125 283.704C103.366 283.704 103.589 283.657 103.796 283.565C104.006 283.469 104.186 283.326 104.337 283.135L104.984 283.838C104.879 283.988 104.737 284.133 104.554 284.272C104.375 284.41 104.16 284.524 103.907 284.613C103.654 284.699 103.366 284.743 103.042 284.743ZM105.854 277.554H107.186V283.505L107.052 284.651H105.854V277.554ZM110.354 282.1V282.197C110.354 282.57 110.314 282.912 110.233 283.223C110.157 283.534 110.036 283.804 109.873 284.032C109.709 284.256 109.505 284.432 109.262 284.558C109.022 284.681 108.738 284.743 108.412 284.743C108.106 284.743 107.841 284.681 107.616 284.558C107.394 284.435 107.207 284.261 107.056 284.036C106.906 283.812 106.783 283.548 106.691 283.246C106.599 282.944 106.529 282.615 106.483 282.257V282.045C106.529 281.687 106.599 281.358 106.691 281.056C106.783 280.755 106.906 280.491 107.056 280.266C107.207 280.041 107.394 279.867 107.616 279.744C107.838 279.621 108.1 279.559 108.402 279.559C108.732 279.559 109.018 279.622 109.262 279.748C109.509 279.871 109.712 280.047 109.873 280.275C110.036 280.5 110.157 280.768 110.233 281.079C110.314 281.387 110.354 281.728 110.354 282.1ZM109.022 282.197V282.1C109.022 281.897 109.007 281.706 108.976 281.527C108.947 281.346 108.899 281.187 108.827 281.052C108.756 280.913 108.659 280.803 108.536 280.724C108.416 280.643 108.26 280.603 108.069 280.603C107.887 280.603 107.733 280.634 107.606 280.695C107.48 280.757 107.375 280.844 107.292 280.954C107.212 281.065 107.152 281.198 107.112 281.351C107.071 281.503 107.047 281.669 107.038 281.851V282.456C107.047 282.699 107.087 282.915 107.158 283.103C107.232 283.287 107.343 283.434 107.491 283.542C107.642 283.647 107.838 283.699 108.078 283.699C108.266 283.699 108.422 283.662 108.546 283.588C108.669 283.514 108.764 283.409 108.832 283.274C108.903 283.138 108.952 282.98 108.98 282.798C109.008 282.613 109.022 282.413 109.022 282.197Z" fill="#ED1D25"/>
<path d="M150.46 277.924H151.634L153.364 282.862L155.094 277.924H156.268L153.836 284.651H152.893L150.46 277.924ZM149.826 277.924H150.996L151.209 282.738V284.651H149.826V277.924ZM155.732 277.924H156.907V284.651H155.519V282.738L155.732 277.924ZM160.74 283.523V281.296C160.74 281.136 160.714 280.999 160.661 280.885C160.609 280.768 160.528 280.677 160.417 280.613C160.309 280.548 160.168 280.516 159.996 280.516C159.848 280.516 159.72 280.542 159.612 280.594C159.504 280.643 159.421 280.716 159.362 280.811C159.304 280.904 159.275 281.013 159.275 281.139H157.942C157.942 280.926 157.992 280.725 158.091 280.534C158.189 280.343 158.332 280.175 158.521 280.031C158.709 279.882 158.932 279.767 159.191 279.684C159.453 279.601 159.746 279.559 160.07 279.559C160.459 279.559 160.804 279.624 161.106 279.753C161.408 279.882 161.646 280.076 161.818 280.335C161.994 280.594 162.081 280.918 162.081 281.306V283.445C162.081 283.719 162.099 283.944 162.133 284.119C162.167 284.292 162.216 284.442 162.28 284.572V284.651H160.935C160.87 284.515 160.821 284.345 160.787 284.142C160.756 283.936 160.74 283.73 160.74 283.523ZM160.916 281.606L160.925 282.359H160.181C160.005 282.359 159.852 282.379 159.723 282.419C159.594 282.459 159.487 282.516 159.404 282.59C159.32 282.661 159.259 282.744 159.219 282.839C159.182 282.935 159.163 283.04 159.163 283.154C159.163 283.268 159.189 283.371 159.242 283.463C159.294 283.552 159.37 283.623 159.469 283.676C159.568 283.725 159.683 283.749 159.815 283.749C160.016 283.749 160.19 283.71 160.338 283.629C160.486 283.55 160.6 283.451 160.68 283.334C160.763 283.217 160.807 283.106 160.81 283.001L161.161 283.565C161.112 283.691 161.044 283.822 160.957 283.957C160.875 284.093 160.768 284.221 160.639 284.341C160.509 284.458 160.354 284.555 160.171 284.632C159.99 284.706 159.774 284.743 159.524 284.743C159.207 284.743 158.918 284.68 158.659 284.554C158.403 284.424 158.2 284.247 158.049 284.022C157.901 283.794 157.827 283.536 157.827 283.246C157.827 282.984 157.876 282.752 157.975 282.548C158.073 282.345 158.219 282.174 158.41 282.036C158.604 281.894 158.846 281.788 159.136 281.717C159.425 281.643 159.762 281.606 160.144 281.606H160.916ZM164.441 280.742V284.651H163.108V279.651H164.362L164.441 280.742ZM165.948 279.619L165.924 280.853C165.86 280.844 165.782 280.836 165.689 280.829C165.599 280.821 165.518 280.816 165.444 280.816C165.256 280.816 165.093 280.841 164.954 280.889C164.818 280.936 164.704 281.005 164.611 281.098C164.522 281.19 164.454 281.303 164.408 281.435C164.365 281.568 164.34 281.718 164.334 281.888L164.066 281.805C164.066 281.481 164.098 281.184 164.163 280.913C164.227 280.639 164.321 280.4 164.445 280.197C164.572 279.994 164.726 279.837 164.907 279.726C165.089 279.614 165.298 279.559 165.531 279.559C165.606 279.559 165.681 279.566 165.758 279.577C165.835 279.587 165.898 279.601 165.948 279.619Z" fill="#ED1D25"/>
<path d="M208.223 279.074L206.391 284.651H204.916L207.418 277.924H208.356L208.223 279.074ZM209.744 284.651L207.908 279.074L207.761 277.924H208.708L211.224 284.651H209.744ZM209.661 282.146V283.232H206.105V282.146H209.661ZM212.949 280.613V286.573H211.617V279.651H212.852L212.949 280.613ZM216.117 282.096V282.193C216.117 282.556 216.074 282.893 215.987 283.204C215.904 283.516 215.781 283.786 215.618 284.017C215.454 284.245 215.251 284.424 215.007 284.554C214.767 284.68 214.489 284.743 214.175 284.743C213.87 284.743 213.604 284.681 213.379 284.558C213.155 284.435 212.964 284.263 212.81 284.041C212.66 283.816 212.537 283.555 212.445 283.26C212.353 282.964 212.282 282.647 212.233 282.308V282.054C212.282 281.691 212.353 281.358 212.445 281.056C212.537 280.751 212.66 280.488 212.81 280.266C212.964 280.041 213.153 279.868 213.375 279.744C213.6 279.621 213.863 279.559 214.166 279.559C214.483 279.559 214.762 279.619 215.002 279.739C215.246 279.86 215.45 280.032 215.613 280.257C215.78 280.482 215.904 280.75 215.987 281.061C216.074 281.372 216.117 281.717 216.117 282.096ZM214.78 282.193V282.096C214.78 281.883 214.762 281.687 214.725 281.509C214.691 281.327 214.636 281.169 214.559 281.033C214.484 280.897 214.386 280.792 214.263 280.719C214.143 280.642 213.996 280.603 213.823 280.603C213.642 280.603 213.485 280.632 213.356 280.691C213.229 280.75 213.126 280.834 213.046 280.945C212.966 281.056 212.906 281.188 212.866 281.343C212.826 281.497 212.801 281.671 212.792 281.865V282.507C212.807 282.735 212.851 282.94 212.922 283.122C212.992 283.3 213.102 283.442 213.25 283.547C213.398 283.651 213.592 283.704 213.833 283.704C214.009 283.704 214.156 283.665 214.276 283.588C214.397 283.508 214.494 283.398 214.568 283.26C214.645 283.122 214.699 282.961 214.73 282.779C214.764 282.597 214.78 282.402 214.78 282.193ZM218.277 280.742V284.651H216.945V279.651H218.198L218.277 280.742ZM219.785 279.619L219.762 280.853C219.697 280.844 219.618 280.836 219.526 280.829C219.436 280.821 219.354 280.816 219.28 280.816C219.092 280.816 218.929 280.841 218.79 280.889C218.654 280.936 218.541 281.005 218.448 281.098C218.358 281.19 218.29 281.303 218.245 281.435C218.201 281.568 218.177 281.718 218.17 281.888L217.902 281.805C217.902 281.481 217.934 281.184 217.999 280.913C218.064 280.639 218.158 280.4 218.282 280.197C218.408 279.994 218.562 279.837 218.744 279.726C218.926 279.614 219.134 279.559 219.369 279.559C219.442 279.559 219.518 279.566 219.595 279.577C219.672 279.587 219.735 279.601 219.785 279.619Z" fill="#ED1D25"/>
<path d="M259.735 277.924H260.909L262.639 282.862L264.369 277.924H265.543L263.111 284.651H262.168L259.735 277.924ZM259.101 277.924H260.271L260.484 282.738V284.651H259.101V277.924ZM265.007 277.924H266.182V284.651H264.794V282.738L265.007 277.924ZM270.015 283.523V281.296C270.015 281.136 269.989 280.999 269.937 280.885C269.884 280.768 269.803 280.677 269.692 280.613C269.584 280.548 269.443 280.516 269.271 280.516C269.123 280.516 268.995 280.542 268.887 280.594C268.779 280.643 268.696 280.716 268.637 280.811C268.579 280.904 268.55 281.013 268.55 281.139H267.217C267.217 280.926 267.267 280.725 267.366 280.534C267.464 280.343 267.607 280.175 267.796 280.031C267.984 279.882 268.207 279.767 268.466 279.684C268.728 279.601 269.021 279.559 269.345 279.559C269.734 279.559 270.079 279.624 270.381 279.753C270.683 279.882 270.921 280.076 271.093 280.335C271.269 280.594 271.356 280.918 271.356 281.306V283.445C271.356 283.719 271.374 283.944 271.408 284.119C271.442 284.292 271.491 284.442 271.555 284.572V284.651H270.21C270.145 284.515 270.096 284.345 270.062 284.142C270.031 283.936 270.015 283.73 270.015 283.523ZM270.191 281.606L270.2 282.359H269.456C269.28 282.359 269.127 282.379 268.998 282.419C268.869 282.459 268.762 282.516 268.679 282.59C268.595 282.661 268.534 282.744 268.494 282.839C268.457 282.935 268.438 283.04 268.438 283.154C268.438 283.268 268.464 283.371 268.517 283.463C268.569 283.552 268.645 283.623 268.744 283.676C268.843 283.725 268.958 283.749 269.09 283.749C269.291 283.749 269.465 283.71 269.613 283.629C269.761 283.55 269.875 283.451 269.955 283.334C270.038 283.217 270.082 283.106 270.085 283.001L270.436 283.565C270.387 283.691 270.319 283.822 270.232 283.957C270.15 284.093 270.043 284.221 269.914 284.341C269.784 284.458 269.629 284.555 269.446 284.632C269.265 284.706 269.049 284.743 268.799 284.743C268.482 284.743 268.193 284.68 267.934 284.554C267.678 284.424 267.475 284.247 267.324 284.022C267.176 283.794 267.102 283.536 267.102 283.246C267.102 282.984 267.151 282.752 267.25 282.548C267.348 282.345 267.494 282.174 267.685 282.036C267.879 281.894 268.121 281.788 268.411 281.717C268.7 281.643 269.037 281.606 269.419 281.606H270.191ZM273.794 284.087L275.121 279.651H276.55L274.539 285.404C274.495 285.53 274.437 285.665 274.363 285.81C274.292 285.955 274.195 286.092 274.072 286.221C273.951 286.354 273.798 286.462 273.614 286.545C273.431 286.628 273.208 286.67 272.943 286.67C272.817 286.67 272.713 286.662 272.633 286.646C272.553 286.631 272.457 286.609 272.346 286.582V285.607C272.38 285.607 272.416 285.607 272.453 285.607C272.49 285.61 272.525 285.612 272.559 285.612C272.735 285.612 272.878 285.591 272.989 285.552C273.1 285.512 273.19 285.45 273.257 285.367C273.325 285.287 273.379 285.182 273.42 285.053L273.794 284.087ZM273.239 279.651L274.326 283.274L274.515 284.683L273.609 284.78L271.81 279.651H273.239Z" fill="#ED1D25"/>
<path d="M318.44 282.585V277.924H319.823V282.585C319.823 283.035 319.724 283.421 319.527 283.745C319.329 284.065 319.059 284.312 318.717 284.484C318.378 284.657 317.995 284.743 317.57 284.743C317.129 284.743 316.74 284.669 316.4 284.521C316.061 284.373 315.794 284.147 315.6 283.842C315.406 283.534 315.309 283.145 315.309 282.673H316.701C316.701 282.92 316.735 283.115 316.803 283.26C316.874 283.405 316.973 283.508 317.103 283.57C317.233 283.631 317.388 283.662 317.57 283.662C317.746 283.662 317.898 283.62 318.028 283.537C318.157 283.454 318.257 283.332 318.328 283.172C318.403 283.012 318.44 282.817 318.44 282.585ZM323.883 283.454V279.651H325.215V284.651H323.962L323.883 283.454ZM324.031 282.429L324.424 282.419C324.424 282.752 324.385 283.061 324.308 283.348C324.231 283.631 324.115 283.878 323.962 284.087C323.808 284.293 323.613 284.455 323.379 284.572C323.145 284.686 322.868 284.743 322.551 284.743C322.307 284.743 322.082 284.709 321.875 284.641C321.673 284.57 321.497 284.461 321.348 284.313C321.204 284.162 321.089 283.97 321.006 283.736C320.926 283.499 320.886 283.214 320.886 282.881V279.651H322.218V282.891C322.218 283.038 322.235 283.163 322.269 283.264C322.306 283.366 322.357 283.45 322.422 283.514C322.486 283.579 322.562 283.625 322.648 283.652C322.737 283.681 322.836 283.694 322.944 283.694C323.219 283.694 323.434 283.639 323.591 283.528C323.752 283.417 323.864 283.266 323.929 283.075C323.997 282.881 324.031 282.665 324.031 282.429ZM327.536 280.719V284.651H326.205V279.651H327.453L327.536 280.719ZM327.342 281.975H326.981C326.981 281.606 327.029 281.273 327.125 280.978C327.22 280.679 327.355 280.425 327.528 280.215C327.7 280.002 327.905 279.841 328.142 279.73C328.383 279.616 328.651 279.559 328.947 279.559C329.181 279.559 329.396 279.593 329.59 279.661C329.784 279.729 329.951 279.837 330.09 279.984C330.231 280.132 330.339 280.328 330.413 280.571C330.49 280.814 330.528 281.112 330.528 281.463V284.651H329.187V281.458C329.187 281.236 329.157 281.064 329.095 280.941C329.033 280.818 328.943 280.731 328.822 280.682C328.705 280.629 328.56 280.603 328.387 280.603C328.209 280.603 328.053 280.639 327.921 280.71C327.791 280.781 327.683 280.879 327.596 281.005C327.513 281.128 327.45 281.273 327.407 281.44C327.364 281.606 327.342 281.784 327.342 281.975Z" fill="#ED1D25"/>
<path d="M373.01 282.585V277.924H374.393V282.585C374.393 283.035 374.294 283.421 374.097 283.745C373.9 284.065 373.63 284.311 373.288 284.484C372.949 284.657 372.567 284.743 372.14 284.743C371.7 284.743 371.31 284.669 370.971 284.521C370.631 284.373 370.364 284.147 370.17 283.842C369.976 283.534 369.879 283.144 369.879 282.673H371.271C371.271 282.92 371.305 283.115 371.373 283.26C371.444 283.405 371.544 283.508 371.674 283.569C371.803 283.631 371.959 283.662 372.14 283.662C372.316 283.662 372.469 283.62 372.599 283.537C372.728 283.454 372.829 283.332 372.899 283.172C372.973 283.012 373.01 282.816 373.01 282.585ZM378.454 283.454V279.651H379.785V284.651H378.532L378.454 283.454ZM378.601 282.429L378.994 282.419C378.994 282.752 378.956 283.061 378.879 283.348C378.802 283.631 378.686 283.878 378.532 284.087C378.378 284.293 378.184 284.455 377.949 284.572C377.715 284.686 377.439 284.743 377.122 284.743C376.878 284.743 376.653 284.709 376.447 284.641C376.243 284.57 376.067 284.461 375.919 284.313C375.774 284.162 375.66 283.97 375.577 283.736C375.496 283.498 375.457 283.214 375.457 282.881V279.651H376.788V282.891C376.788 283.038 376.806 283.163 376.84 283.264C376.876 283.366 376.927 283.45 376.992 283.514C377.057 283.579 377.133 283.625 377.219 283.652C377.308 283.681 377.406 283.694 377.515 283.694C377.789 283.694 378.005 283.639 378.162 283.528C378.323 283.417 378.435 283.266 378.5 283.075C378.567 282.881 378.601 282.665 378.601 282.429ZM382.208 277.554V284.651H380.872V277.554H382.208Z" fill="#ED1D25"/>
<path d="M424.627 279.074L422.795 284.651H421.32L423.822 277.924H424.761L424.627 279.074ZM426.149 284.651L424.312 279.074L424.165 277.924H425.112L427.629 284.651H426.149ZM426.065 282.146V283.232H422.509V282.146H426.065ZM431.074 283.454V279.651H432.405V284.651H431.152L431.074 283.454ZM431.222 282.429L431.615 282.419C431.615 282.752 431.576 283.061 431.499 283.348C431.422 283.631 431.307 283.878 431.152 284.087C430.998 284.293 430.804 284.455 430.57 284.572C430.335 284.686 430.06 284.743 429.742 284.743C429.499 284.743 429.273 284.709 429.067 284.641C428.863 284.57 428.687 284.461 428.54 284.313C428.394 284.162 428.281 283.97 428.197 283.736C428.117 283.499 428.077 283.214 428.077 282.881V279.651H429.409V282.891C429.409 283.038 429.426 283.163 429.46 283.264C429.497 283.366 429.547 283.45 429.612 283.514C429.677 283.579 429.753 283.625 429.839 283.652C429.929 283.681 430.027 283.694 430.135 283.694C430.409 283.694 430.625 283.639 430.783 283.528C430.943 283.417 431.055 283.266 431.12 283.075C431.188 282.881 431.222 282.665 431.222 282.429ZM436.591 279.651H437.798V284.484C437.798 284.94 437.696 285.326 437.493 285.644C437.293 285.964 437.012 286.206 436.651 286.37C436.29 286.536 435.871 286.619 435.393 286.619C435.184 286.619 434.962 286.591 434.728 286.536C434.496 286.48 434.274 286.394 434.061 286.276C433.851 286.16 433.676 286.012 433.534 285.833L434.121 285.048C434.275 285.226 434.454 285.365 434.658 285.464C434.862 285.565 435.087 285.616 435.333 285.616C435.574 285.616 435.777 285.572 435.944 285.482C436.11 285.396 436.238 285.268 436.327 285.098C436.417 284.932 436.462 284.731 436.462 284.494V280.807L436.591 279.651ZM433.224 282.211V282.114C433.224 281.732 433.271 281.385 433.363 281.075C433.458 280.76 433.593 280.491 433.765 280.266C433.941 280.041 434.154 279.868 434.403 279.744C434.653 279.621 434.935 279.559 435.25 279.559C435.583 279.559 435.862 279.621 436.087 279.744C436.312 279.868 436.497 280.043 436.642 280.27C436.787 280.495 436.9 280.762 436.979 281.07C437.063 281.375 437.128 281.709 437.174 282.072V282.285C437.128 282.633 437.058 282.957 436.966 283.255C436.873 283.554 436.751 283.816 436.601 284.041C436.449 284.263 436.261 284.435 436.036 284.558C435.814 284.681 435.549 284.743 435.241 284.743C434.932 284.743 434.653 284.68 434.403 284.554C434.157 284.427 433.945 284.25 433.77 284.022C433.594 283.794 433.458 283.526 433.363 283.219C433.271 282.91 433.224 282.574 433.224 282.211ZM434.556 282.114V282.211C434.556 282.418 434.576 282.61 434.616 282.789C434.657 282.967 434.718 283.126 434.801 283.264C434.888 283.4 434.994 283.506 435.121 283.583C435.25 283.657 435.402 283.694 435.578 283.694C435.821 283.694 436.02 283.644 436.175 283.542C436.329 283.437 436.444 283.294 436.522 283.112C436.599 282.93 436.643 282.721 436.656 282.484V281.878C436.649 281.684 436.623 281.511 436.577 281.356C436.531 281.199 436.466 281.065 436.383 280.954C436.3 280.844 436.192 280.757 436.059 280.695C435.926 280.634 435.769 280.603 435.587 280.603C435.412 280.603 435.259 280.643 435.129 280.724C435.003 280.8 434.896 280.907 434.81 281.042C434.728 281.178 434.664 281.338 434.621 281.523C434.578 281.705 434.556 281.902 434.556 282.114Z" fill="#ED1D25"/>
<path d="M480.912 282.891C480.912 282.77 480.893 282.663 480.856 282.567C480.823 282.468 480.757 282.379 480.662 282.299C480.566 282.216 480.432 282.134 480.26 282.054C480.087 281.974 479.864 281.891 479.589 281.805C479.284 281.706 478.994 281.595 478.719 281.472C478.448 281.348 478.208 281.206 477.998 281.042C477.792 280.876 477.628 280.684 477.508 280.464C477.391 280.246 477.332 279.992 477.332 279.703C477.332 279.422 477.394 279.168 477.517 278.94C477.64 278.709 477.813 278.512 478.035 278.349C478.257 278.182 478.52 278.055 478.821 277.965C479.126 277.876 479.461 277.832 479.825 277.832C480.321 277.832 480.755 277.921 481.124 278.099C481.494 278.278 481.781 278.523 481.984 278.834C482.191 279.145 482.295 279.501 482.295 279.901H480.917C480.917 279.704 480.875 279.532 480.791 279.383C480.711 279.233 480.588 279.114 480.422 279.028C480.258 278.942 480.051 278.898 479.802 278.898C479.561 278.898 479.361 278.935 479.201 279.01C479.04 279.081 478.92 279.178 478.84 279.301C478.759 279.42 478.719 279.556 478.719 279.707C478.719 279.821 478.748 279.924 478.803 280.016C478.861 280.109 478.948 280.195 479.062 280.275C479.176 280.356 479.316 280.43 479.482 280.501C479.649 280.572 479.842 280.642 480.061 280.71C480.428 280.821 480.75 280.945 481.027 281.084C481.308 281.222 481.542 281.378 481.73 281.55C481.918 281.723 482.06 281.918 482.156 282.137C482.251 282.356 482.299 282.604 482.299 282.881C482.299 283.174 482.242 283.435 482.128 283.667C482.014 283.898 481.849 284.093 481.633 284.253C481.417 284.413 481.16 284.535 480.861 284.618C480.561 284.701 480.228 284.743 479.857 284.743C479.524 284.743 479.196 284.699 478.872 284.613C478.549 284.524 478.254 284.39 477.989 284.211C477.727 284.033 477.517 283.805 477.36 283.528C477.203 283.251 477.124 282.923 477.124 282.544H478.516C478.516 282.753 478.549 282.93 478.613 283.075C478.678 283.22 478.769 283.337 478.886 283.426C479.006 283.516 479.148 283.581 479.311 283.62C479.478 283.66 479.66 283.681 479.857 283.681C480.098 283.681 480.295 283.647 480.449 283.579C480.606 283.511 480.722 283.417 480.796 283.297C480.873 283.177 480.912 283.041 480.912 282.891ZM485.462 284.743C485.074 284.743 484.726 284.681 484.417 284.558C484.109 284.432 483.847 284.258 483.631 284.036C483.419 283.814 483.255 283.557 483.141 283.264C483.026 282.969 482.969 282.655 482.969 282.322V282.137C482.969 281.758 483.024 281.412 483.131 281.098C483.239 280.784 483.393 280.511 483.594 280.28C483.797 280.049 484.044 279.871 484.334 279.748C484.624 279.622 484.951 279.559 485.314 279.559C485.669 279.559 485.984 279.618 486.258 279.735C486.532 279.852 486.762 280.018 486.947 280.233C487.135 280.449 487.277 280.708 487.372 281.01C487.468 281.309 487.516 281.642 487.516 282.007V282.563H483.539V281.676H486.207V281.574C486.207 281.388 486.173 281.224 486.105 281.079C486.041 280.931 485.942 280.814 485.809 280.728C485.677 280.642 485.507 280.598 485.3 280.598C485.125 280.598 484.973 280.637 484.847 280.714C484.721 280.791 484.618 280.899 484.538 281.038C484.46 281.176 484.402 281.34 484.362 281.527C484.325 281.712 484.307 281.915 484.307 282.137V282.322C484.307 282.522 484.334 282.707 484.389 282.876C484.448 283.046 484.53 283.192 484.635 283.316C484.742 283.439 484.872 283.534 485.023 283.602C485.177 283.67 485.352 283.704 485.546 283.704C485.786 283.704 486.01 283.657 486.217 283.565C486.426 283.469 486.607 283.326 486.757 283.135L487.404 283.838C487.3 283.988 487.157 284.133 486.974 284.272C486.796 284.41 486.58 284.524 486.327 284.613C486.075 284.699 485.786 284.743 485.462 284.743ZM489.606 280.613V286.573H488.274V279.651H489.509L489.606 280.613ZM492.774 282.096V282.193C492.774 282.556 492.731 282.893 492.645 283.204C492.562 283.516 492.438 283.786 492.274 284.017C492.111 284.245 491.907 284.424 491.664 284.554C491.424 284.68 491.146 284.743 490.832 284.743C490.526 284.743 490.262 284.681 490.036 284.558C489.811 284.435 489.622 284.263 489.468 284.041C489.316 283.816 489.195 283.555 489.102 283.26C489.01 282.964 488.939 282.647 488.889 282.308V282.054C488.939 281.69 489.01 281.358 489.102 281.056C489.195 280.751 489.316 280.488 489.468 280.266C489.622 280.041 489.809 279.867 490.031 279.744C490.257 279.621 490.521 279.559 490.822 279.559C491.14 279.559 491.419 279.619 491.66 279.739C491.903 279.86 492.106 280.032 492.27 280.257C492.436 280.482 492.562 280.75 492.645 281.06C492.731 281.372 492.774 281.717 492.774 282.096ZM491.438 282.193V282.096C491.438 281.883 491.419 281.687 491.382 281.509C491.348 281.327 491.293 281.168 491.215 281.033C491.142 280.897 491.043 280.792 490.919 280.719C490.799 280.642 490.653 280.603 490.48 280.603C490.298 280.603 490.143 280.632 490.013 280.691C489.887 280.75 489.783 280.834 489.703 280.945C489.623 281.056 489.563 281.188 489.523 281.343C489.483 281.497 489.458 281.671 489.449 281.865V282.507C489.465 282.734 489.507 282.939 489.578 283.122C489.649 283.3 489.759 283.442 489.907 283.547C490.055 283.651 490.249 283.704 490.49 283.704C490.665 283.704 490.813 283.665 490.933 283.588C491.053 283.508 491.15 283.398 491.225 283.26C491.302 283.122 491.356 282.961 491.386 282.779C491.42 282.597 491.438 282.402 491.438 282.193Z" fill="#ED1D25"/>
<path d="M537.695 281.13V281.448C537.695 281.96 537.627 282.419 537.488 282.826C537.349 283.232 537.153 283.579 536.901 283.865C536.647 284.148 536.345 284.366 535.994 284.516C535.646 284.667 535.259 284.743 534.833 284.743C534.41 284.743 534.024 284.667 533.672 284.516C533.323 284.366 533.022 284.148 532.765 283.865C532.51 283.579 532.311 283.232 532.169 282.826C532.031 282.419 531.961 281.96 531.961 281.448V281.13C531.961 280.616 532.031 280.157 532.169 279.753C532.308 279.346 532.503 279 532.757 278.714C533.013 278.427 533.315 278.208 533.663 278.058C534.014 277.906 534.402 277.832 534.824 277.832C535.249 277.832 535.636 277.906 535.984 278.058C536.336 278.208 536.638 278.427 536.891 278.714C537.147 279 537.344 279.346 537.483 279.753C537.625 280.157 537.695 280.616 537.695 281.13ZM536.294 281.448V281.12C536.294 280.763 536.262 280.449 536.197 280.178C536.133 279.907 536.037 279.679 535.911 279.495C535.784 279.31 535.63 279.171 535.448 279.079C535.266 278.983 535.058 278.935 534.824 278.935C534.589 278.935 534.381 278.983 534.2 279.079C534.02 279.171 533.868 279.31 533.742 279.495C533.618 279.679 533.524 279.907 533.459 280.178C533.394 280.449 533.362 280.763 533.362 281.12V281.448C533.362 281.803 533.394 282.117 533.459 282.391C533.524 282.663 533.619 282.892 533.747 283.08C533.873 283.264 534.027 283.405 534.208 283.5C534.391 283.596 534.599 283.644 534.833 283.644C535.067 283.644 535.275 283.596 535.457 283.5C535.639 283.405 535.792 283.264 535.915 283.08C536.039 282.892 536.133 282.663 536.197 282.391C536.262 282.117 536.294 281.803 536.294 281.448ZM540.679 283.704C540.842 283.704 540.987 283.673 541.113 283.611C541.24 283.547 541.339 283.457 541.409 283.343C541.483 283.226 541.522 283.089 541.525 282.932H542.778C542.775 283.283 542.681 283.596 542.496 283.87C542.311 284.141 542.063 284.355 541.751 284.512C541.44 284.666 541.092 284.743 540.706 284.743C540.318 284.743 539.979 284.678 539.689 284.549C539.403 284.42 539.163 284.241 538.972 284.013C538.781 283.782 538.638 283.514 538.542 283.209C538.447 282.901 538.399 282.571 538.399 282.22V282.086C538.399 281.732 538.447 281.403 538.542 281.098C538.638 280.79 538.781 280.522 538.972 280.294C539.163 280.063 539.403 279.882 539.689 279.753C539.976 279.624 540.312 279.559 540.697 279.559C541.107 279.559 541.467 279.638 541.774 279.795C542.086 279.952 542.33 280.177 542.505 280.469C542.684 280.758 542.775 281.102 542.778 281.5H541.525C541.522 281.333 541.486 281.183 541.418 281.047C541.354 280.911 541.258 280.803 541.132 280.724C541.009 280.64 540.856 280.598 540.674 280.598C540.48 280.598 540.321 280.64 540.197 280.724C540.074 280.803 539.979 280.915 539.911 281.056C539.843 281.195 539.796 281.353 539.767 281.532C539.743 281.708 539.731 281.892 539.731 282.086V282.22C539.731 282.414 539.743 282.6 539.767 282.779C539.792 282.958 539.838 283.117 539.906 283.255C539.977 283.394 540.074 283.503 540.197 283.583C540.321 283.663 540.482 283.704 540.679 283.704ZM546.002 279.651V280.594H543.088V279.651H546.002ZM543.81 278.418H545.141V283.144C545.141 283.289 545.16 283.4 545.197 283.477C545.237 283.554 545.295 283.608 545.373 283.639C545.45 283.667 545.547 283.681 545.664 283.681C545.748 283.681 545.821 283.678 545.886 283.671C545.954 283.662 546.011 283.652 546.057 283.644L546.062 284.623C545.947 284.66 545.824 284.689 545.692 284.71C545.559 284.733 545.413 284.743 545.253 284.743C544.96 284.743 544.703 284.695 544.485 284.6C544.269 284.502 544.103 284.344 543.985 284.129C543.868 283.913 543.81 283.629 543.81 283.279V278.418Z" fill="#ED1D25"/>
<path d="M590.957 277.924V284.651H589.57L586.865 280.141V284.651H585.477V277.924H586.865L589.574 282.437V277.924H590.957ZM591.869 282.202V282.104C591.869 281.739 591.921 281.401 592.026 281.093C592.131 280.782 592.283 280.513 592.484 280.285C592.684 280.057 592.93 279.879 593.223 279.753C593.517 279.624 593.852 279.559 594.232 279.559C594.611 279.559 594.948 279.624 595.244 279.753C595.54 279.879 595.788 280.057 595.989 280.285C596.192 280.513 596.346 280.782 596.451 281.093C596.556 281.401 596.609 281.739 596.609 282.104V282.202C596.609 282.565 596.556 282.902 596.451 283.214C596.346 283.521 596.192 283.791 595.989 284.022C595.788 284.25 595.542 284.427 595.249 284.554C594.956 284.68 594.62 284.743 594.241 284.743C593.862 284.743 593.524 284.68 593.228 284.554C592.935 284.427 592.687 284.25 592.484 284.022C592.283 283.791 592.131 283.521 592.026 283.214C591.921 282.902 591.869 282.565 591.869 282.202ZM593.2 282.104V282.202C593.2 282.411 593.219 282.607 593.255 282.789C593.293 282.97 593.352 283.13 593.431 283.269C593.515 283.405 593.622 283.511 593.755 283.588C593.888 283.665 594.049 283.704 594.241 283.704C594.426 283.704 594.585 283.665 594.717 283.588C594.85 283.511 594.956 283.405 595.036 283.269C595.117 283.13 595.175 282.97 595.212 282.789C595.252 282.607 595.272 282.411 595.272 282.202V282.104C595.272 281.902 595.252 281.71 595.212 281.532C595.175 281.35 595.115 281.19 595.031 281.052C594.952 280.91 594.845 280.799 594.712 280.719C594.58 280.639 594.42 280.598 594.232 280.598C594.044 280.598 593.883 280.639 593.75 280.719C593.621 280.799 593.515 280.91 593.431 281.052C593.352 281.19 593.293 281.35 593.255 281.532C593.219 281.71 593.2 281.902 593.2 282.104ZM599.055 283.681L600.165 279.651H601.557L599.869 284.651H599.027L599.055 283.681ZM598.292 279.651L599.406 283.685L599.43 284.651H598.583L596.896 279.651H598.292Z" fill="#ED1D25"/>
<path d="M642.959 284.651H641.494L641.503 283.57H642.959C643.323 283.57 643.63 283.488 643.88 283.324C644.13 283.158 644.318 282.917 644.444 282.599C644.573 282.282 644.638 281.899 644.638 281.448V281.12C644.638 280.776 644.601 280.472 644.528 280.21C644.457 279.949 644.35 279.729 644.208 279.55C644.067 279.372 643.892 279.237 643.685 279.148C643.479 279.055 643.242 279.01 642.973 279.01H641.466V277.924H642.973C643.423 277.924 643.835 278 644.208 278.155C644.584 278.305 644.91 278.523 645.184 278.806C645.458 279.089 645.67 279.428 645.817 279.823C645.969 280.214 646.045 280.65 646.045 281.13V281.448C646.045 281.926 645.969 282.362 645.817 282.757C645.67 283.151 645.458 283.489 645.184 283.773C644.913 284.053 644.588 284.271 644.208 284.424C643.832 284.575 643.416 284.651 642.959 284.651ZM642.28 277.924V284.651H640.892V277.924H642.28ZM649.272 284.743C648.884 284.743 648.536 284.681 648.227 284.558C647.919 284.432 647.657 284.258 647.441 284.036C647.228 283.814 647.065 283.557 646.951 283.264C646.836 282.969 646.779 282.655 646.779 282.322V282.137C646.779 281.758 646.834 281.412 646.941 281.098C647.049 280.784 647.203 280.511 647.404 280.28C647.607 280.049 647.854 279.871 648.144 279.748C648.434 279.622 648.76 279.559 649.124 279.559C649.479 279.559 649.794 279.618 650.068 279.735C650.342 279.852 650.572 280.018 650.757 280.233C650.945 280.449 651.086 280.708 651.182 281.01C651.278 281.309 651.326 281.642 651.326 282.008V282.563H647.348V281.676H650.017V281.574C650.017 281.389 649.983 281.224 649.915 281.079C649.85 280.931 649.752 280.814 649.619 280.728C649.487 280.642 649.317 280.598 649.11 280.598C648.935 280.598 648.783 280.637 648.657 280.714C648.531 280.791 648.427 280.899 648.348 281.038C648.27 281.176 648.212 281.34 648.172 281.527C648.135 281.712 648.116 281.915 648.116 282.137V282.322C648.116 282.522 648.144 282.707 648.199 282.876C648.258 283.046 648.34 283.192 648.445 283.316C648.552 283.439 648.682 283.534 648.833 283.602C648.987 283.67 649.161 283.704 649.356 283.704C649.596 283.704 649.82 283.657 650.026 283.565C650.236 283.469 650.416 283.326 650.567 283.135L651.214 283.838C651.11 283.988 650.967 284.133 650.784 284.272C650.606 284.41 650.39 284.524 650.137 284.614C649.884 284.699 649.596 284.743 649.272 284.743ZM654.151 283.704C654.315 283.704 654.46 283.673 654.586 283.611C654.713 283.547 654.811 283.457 654.882 283.343C654.956 283.226 654.994 283.089 654.997 282.932H656.251C656.248 283.283 656.154 283.596 655.969 283.87C655.784 284.141 655.536 284.355 655.224 284.512C654.913 284.666 654.564 284.743 654.179 284.743C653.791 284.743 653.451 284.678 653.162 284.549C652.875 284.42 652.636 284.241 652.445 284.013C652.254 283.782 652.11 283.514 652.015 283.209C651.919 282.901 651.871 282.571 651.871 282.22V282.086C651.871 281.732 651.919 281.403 652.015 281.098C652.11 280.79 652.254 280.522 652.445 280.294C652.636 280.063 652.875 279.882 653.162 279.753C653.448 279.624 653.784 279.559 654.169 279.559C654.58 279.559 654.939 279.638 655.248 279.795C655.559 279.952 655.802 280.177 655.979 280.469C656.157 280.759 656.248 281.102 656.251 281.5H654.997C654.994 281.333 654.959 281.183 654.892 281.047C654.827 280.911 654.731 280.803 654.604 280.724C654.481 280.64 654.329 280.598 654.147 280.598C653.952 280.598 653.794 280.64 653.671 280.724C653.547 280.803 653.451 280.915 653.383 281.056C653.315 281.195 653.268 281.353 653.24 281.532C653.216 281.708 653.203 281.892 653.203 282.086V282.22C653.203 282.414 653.216 282.6 653.24 282.779C653.265 282.958 653.311 283.117 653.379 283.255C653.45 283.394 653.547 283.503 653.671 283.583C653.794 283.663 653.954 283.704 654.151 283.704Z" fill="#ED1D25"/>
<path d="M0 189.099H22.0522C44.1043 189.099 88.209 189.099 132.313 171.934C176.417 155.026 208.987 122.708 264.626 110.216C315.057 98.8936 352.834 113.881 396.939 106.809C441.043 99.7365 485.147 72.7353 529.252 72.5425C573.356 72.7353 617.461 99.7365 639.512 113.687L661.564 127.381" stroke="#ED1D25" stroke-width="2"/>
<path opacity="0.16" d="M0 281.899H22.0785C44.1569 281.899 88.314 281.899 132.471 256.409C176.627 231.301 220.785 179.748 264.941 164.759C309.098 149.197 353.255 170.2 397.412 159.699C441.569 149.197 485.726 109.1 529.882 108.814C574.04 109.1 618.196 149.197 640.275 169.914L655.902 184.308C660.014 188.095 662.353 193.429 662.353 199.019V323C662.353 334.046 653.398 343 642.353 343H640.275C618.196 343 574.04 343 529.882 343C485.726 343 441.569 343 397.412 343C353.255 343 309.098 343 264.941 343C220.785 343 176.627 343 132.471 343C88.314 343 44.1569 343 22.0785 343H0" fill="url(#paint1_linear_4477_9779)"/>
<path d="M0 283.07H22.0785C44.1569 283.07 88.314 283.07 132.471 257.58C176.627 232.472 220.785 180.919 264.941 165.93C309.098 150.368 353.255 171.371 397.412 160.869C441.569 150.368 485.726 110.271 529.882 109.985C574.04 110.271 618.196 150.368 640.275 171.085L662.353 191.42" stroke="url(#paint2_linear_4477_9779)" stroke-width="2"/>
<path d="M16.0362 17.3842L17.7034 20.2464L19.3706 17.3842H20.9299L18.5559 21.2705L20.9893 25.2322H19.4138L17.7034 22.3162L15.993 25.2322H14.4122L16.8509 21.2705L14.4715 17.3842H16.0362ZM25.1256 18.4298L22.7786 25.2322H21.3595L24.3163 17.3842H25.2227L25.1256 18.4298ZM27.0896 25.2322L24.7371 18.4298L24.6346 17.3842H25.5465L28.514 25.2322H27.0896ZM26.9763 22.3215V23.3941H22.7031V22.3215H26.9763ZM33.7834 17.3842H35.1323V22.6287C35.1323 23.2253 35.0028 23.7248 34.7438 24.1272C34.4848 24.5297 34.1323 24.8333 33.6863 25.0382C33.2438 25.2394 32.7493 25.34 32.2025 25.34C31.6378 25.34 31.1342 25.2394 30.6917 25.0382C30.2493 24.8333 29.9004 24.5297 29.6451 24.1272C29.3933 23.7248 29.2674 23.2253 29.2674 22.6287V17.3842H30.6162V22.6287C30.6162 23.0061 30.681 23.317 30.8104 23.5613C30.94 23.802 31.1234 23.9799 31.3608 24.0949C31.5982 24.2099 31.8788 24.2674 32.2025 24.2674C32.5263 24.2674 32.8051 24.2099 33.0388 24.0949C33.2763 23.9799 33.4597 23.802 33.5891 23.5613C33.7187 23.317 33.7834 23.0061 33.7834 22.6287V17.3842ZM39.97 17.3842L36.9108 25.906H35.8911L38.9557 17.3842H39.97ZM45.4876 17.3842H46.8365V22.6287C46.8365 23.2253 46.7071 23.7248 46.448 24.1272C46.1891 24.5297 45.8366 24.8333 45.3905 25.0382C44.9481 25.2394 44.4535 25.34 43.9068 25.34C43.342 25.34 42.8385 25.2394 42.3961 25.0382C41.9536 24.8333 41.6047 24.5297 41.3493 24.1272C41.0975 23.7248 40.9716 23.2253 40.9716 22.6287V17.3842H42.3205V22.6287C42.3205 23.0061 42.3852 23.317 42.5147 23.5613C42.6442 23.802 42.8276 23.9799 43.0651 24.0949C43.3025 24.2099 43.5831 24.2674 43.9068 24.2674C44.2305 24.2674 44.5093 24.2099 44.7431 24.0949C44.9805 23.9799 45.1639 23.802 45.2934 23.5613C45.4229 23.317 45.4876 23.0061 45.4876 22.6287V17.3842ZM52.5214 23.2109C52.5214 23.0492 52.4962 22.9055 52.4459 22.7797C52.3991 22.6539 52.3145 22.5389 52.1923 22.4347C52.0699 22.3305 51.8973 22.2299 51.6743 22.1329C51.4549 22.0322 51.1743 21.9298 50.8326 21.8257C50.4585 21.7107 50.1132 21.5831 49.7966 21.4429C49.4837 21.2992 49.2104 21.1339 48.9766 20.947C48.7427 20.7566 48.5611 20.5392 48.4316 20.2948C48.3021 20.0469 48.2373 19.7612 48.2373 19.4378C48.2373 19.118 48.3039 18.8269 48.437 18.5645C48.5736 18.3023 48.7661 18.0759 49.0143 17.8854C49.2661 17.6914 49.5629 17.5423 49.9045 17.438C50.2463 17.3302 50.624 17.2764 51.0376 17.2764C51.6204 17.2764 52.1221 17.3842 52.543 17.5997C52.9674 17.8154 53.2929 18.1046 53.5195 18.4676C53.7498 18.8305 53.8649 19.2312 53.8649 19.6696H52.5214C52.5214 19.4109 52.4656 19.1827 52.3542 18.985C52.2462 18.7838 52.0808 18.6257 51.8577 18.5107C51.6384 18.3957 51.3596 18.3382 51.0215 18.3382C50.7013 18.3382 50.4351 18.3867 50.2229 18.4837C50.0107 18.5808 49.8524 18.7119 49.7481 18.8772C49.6438 19.0425 49.5917 19.2293 49.5917 19.4378C49.5917 19.5851 49.6258 19.7199 49.6941 19.8421C49.7625 19.9607 49.8668 20.072 50.0071 20.1763C50.1474 20.2769 50.3236 20.3721 50.5358 20.4619C50.748 20.5517 50.9981 20.638 51.2858 20.7206C51.7211 20.85 52.1006 20.9938 52.4242 21.1519C52.748 21.3064 53.0178 21.4825 53.2336 21.6801C53.4495 21.8778 53.6113 22.1023 53.7192 22.3539C53.8271 22.6019 53.881 22.8839 53.881 23.2002C53.881 23.5307 53.8145 23.829 53.6814 24.0949C53.5484 24.3572 53.3577 24.5818 53.1095 24.7687C52.8649 24.9519 52.57 25.0939 52.2246 25.1945C51.8829 25.2915 51.5017 25.34 51.0808 25.34C50.7031 25.34 50.3308 25.2897 49.9639 25.1891C49.6006 25.0885 49.2697 24.9358 48.9711 24.731C48.6726 24.5225 48.4352 24.2638 48.259 23.9548C48.0827 23.6421 47.9945 23.2774 47.9945 22.8606H49.3488C49.3488 23.1157 49.392 23.3331 49.4783 23.5127C49.5682 23.6924 49.6924 23.8397 49.8506 23.9548C50.0089 24.0662 50.1923 24.1488 50.4009 24.2027C50.6132 24.2566 50.8398 24.2836 51.0808 24.2836C51.3973 24.2836 51.6617 24.2386 51.874 24.1488C52.0898 24.0589 52.2516 23.9332 52.3595 23.7715C52.4674 23.6098 52.5214 23.4229 52.5214 23.2109ZM57.4401 25.2322H55.7621L55.7729 24.1596H57.4401C57.9257 24.1596 58.3321 24.0536 58.6595 23.8415C58.9904 23.6295 59.2385 23.3259 59.4041 22.9307C59.5731 22.5354 59.6577 22.0646 59.6577 21.5184V21.0926C59.6577 20.6685 59.6091 20.293 59.512 19.966C59.4184 19.639 59.2782 19.3641 59.0911 19.1413C58.9077 18.9185 58.6811 18.7496 58.4113 18.6346C58.1451 18.5197 57.8376 18.4622 57.4886 18.4622H55.7297V17.3842H57.4886C58.0102 17.3842 58.4868 17.4722 58.9185 17.6482C59.3501 17.8208 59.7224 18.0705 60.0353 18.3975C60.3518 18.7245 60.5946 19.1162 60.7637 19.5726C60.9328 20.0289 61.0173 20.5392 61.0173 21.1034V21.5184C61.0173 22.0825 60.9328 22.5929 60.7637 23.0492C60.5946 23.5056 60.3518 23.8973 60.0353 24.2243C59.7187 24.5477 59.3411 24.7975 58.9022 24.9735C58.467 25.146 57.9796 25.2322 57.4401 25.2322ZM56.512 17.3842V25.2322H55.1578V17.3842H56.512Z" fill="#111112"/>
<path d="M377.279 65.446H344.918V343H377.279V65.446Z" fill="url(#paint3_linear_4477_9779)"/>
<path d="M361.493 108.812L362.249 342.998" stroke="white" stroke-width="2"/>
<path d="M361.493 118.276C366.724 118.276 370.964 114.04 370.964 108.814C370.964 103.588 366.724 99.3518 361.493 99.3518C356.262 99.3518 352.021 103.588 352.021 108.814C352.021 114.04 356.262 118.276 361.493 118.276Z" fill="#613DE4" fill-opacity="0.15"/>
<g filter="url(#filter0_d_4477_9779)">
<path d="M361.493 111.968C363.236 111.968 364.65 110.556 364.65 108.814C364.65 107.072 363.236 105.66 361.493 105.66C359.749 105.66 358.336 107.072 358.336 108.814C358.336 110.556 359.749 111.968 361.493 111.968Z" fill="white"/>
</g>
<g filter="url(#filter1_d_4477_9779)">
<path d="M391.486 57.561H327.554C325.81 57.561 324.396 58.9731 324.396 60.7151V95.4093C324.396 97.1512 325.81 98.5633 327.554 98.5633H391.486C393.229 98.5633 394.643 97.1512 394.643 95.4093V60.7151C394.643 58.9731 393.229 57.561 391.486 57.561Z" fill="#ED1D25"/>
<path d="M337.98 66.5928V68.2044H337.149V66.5928H337.98ZM337.877 75.3949V76.8395H337.052V75.3949H337.877ZM338.692 73.6539C338.692 73.4455 338.649 73.264 338.563 73.1095C338.48 72.9514 338.343 72.8094 338.153 72.6837C337.962 72.5543 337.707 72.4339 337.387 72.3225C336.926 72.1608 336.523 71.9794 336.178 71.7781C335.836 71.5733 335.57 71.3218 335.379 71.0235C335.192 70.7216 335.099 70.3461 335.099 69.8969C335.099 69.455 335.199 69.0722 335.401 68.7489C335.606 68.4254 335.89 68.1757 336.253 67.9996C336.617 67.8235 337.042 67.7355 337.527 67.7355C337.901 67.7355 338.237 67.7912 338.536 67.9026C338.838 68.014 339.095 68.1775 339.308 68.3931C339.519 68.6087 339.682 68.8746 339.793 69.1908C339.908 69.5035 339.966 69.8628 339.966 70.2689H338.671C338.671 70.0389 338.644 69.8341 338.589 69.6544C338.54 69.4711 338.464 69.3166 338.363 69.1908C338.263 69.0615 338.14 68.9626 337.996 68.8943C337.856 68.8261 337.696 68.792 337.516 68.792C337.261 68.792 337.05 68.8405 336.885 68.9375C336.72 69.0309 336.597 69.1603 336.517 69.3256C336.443 69.4909 336.405 69.6795 336.405 69.8916C336.405 70.0964 336.444 70.276 336.523 70.4306C336.603 70.5851 336.737 70.7253 336.928 70.851C337.122 70.9732 337.388 71.0972 337.727 71.223C338.191 71.3882 338.592 71.5733 338.93 71.7781C339.271 71.9794 339.534 72.2291 339.717 72.5274C339.904 72.822 339.998 73.1939 339.998 73.6431C339.998 74.1067 339.89 74.5001 339.674 74.8236C339.462 75.147 339.163 75.3931 338.779 75.562C338.398 75.7273 337.953 75.81 337.446 75.81C337.126 75.81 336.807 75.7686 336.491 75.686C336.178 75.5998 335.894 75.4596 335.638 75.2655C335.383 75.0715 335.18 74.8146 335.029 74.4948C334.877 74.1713 334.802 73.7761 334.802 73.309H336.108C336.108 73.5892 336.146 73.8228 336.221 74.0097C336.296 74.1965 336.399 74.3439 336.529 74.4517C336.658 74.5594 336.802 74.6367 336.96 74.6834C337.122 74.7302 337.284 74.7535 337.446 74.7535C337.716 74.7535 337.942 74.7085 338.126 74.6187C338.313 74.5253 338.453 74.396 338.547 74.2306C338.644 74.0617 338.692 73.8695 338.692 73.6539ZM344.766 67.8217V75.6968H343.466V69.3633L341.539 70.0155V68.9429L344.609 67.8217H344.766ZM348.87 74.4463L348.864 75.3733C348.864 75.7399 348.773 76.1172 348.589 76.5053C348.406 76.8934 348.163 77.2132 347.86 77.4648L347.164 77.0605C347.265 76.8988 347.357 76.7353 347.44 76.57C347.523 76.4047 347.589 76.2286 347.639 76.0418C347.69 75.8549 347.715 75.6483 347.715 75.4219V74.4463H348.87ZM355.536 72.8992V73.9342H349.871L349.828 73.1526L353.216 67.8487H354.257L353.13 69.7783L351.182 72.8992H355.536ZM354.554 67.8487V75.6968H353.254V67.8487H354.554ZM361.75 74.6619V75.6968H356.484V74.8074L359.041 72.0207C359.322 71.7044 359.543 71.4314 359.705 71.2014C359.867 70.9714 359.981 70.7648 360.045 70.5815C360.113 70.3946 360.148 70.2132 360.148 70.0371C360.148 69.7891 360.101 69.5717 360.007 69.3849C359.917 69.1944 359.784 69.0453 359.608 68.9375C359.432 68.8261 359.217 68.7704 358.966 68.7704C358.674 68.7704 358.43 68.8333 358.232 68.9591C358.034 69.0848 357.885 69.2591 357.784 69.4819C357.684 69.7011 357.633 69.9527 357.633 70.2365H356.333C356.333 69.7802 356.437 69.3633 356.646 68.986C356.854 68.6051 357.157 68.3033 357.552 68.0804C357.948 67.8541 358.425 67.7409 358.982 67.7409C359.507 67.7409 359.953 67.8289 360.32 68.005C360.687 68.1811 360.966 68.4309 361.157 68.7542C361.351 69.0777 361.448 69.4603 361.448 69.9024C361.448 70.1467 361.408 70.3893 361.329 70.63C361.25 70.8708 361.137 71.1115 360.989 71.3523C360.846 71.5895 360.674 71.8284 360.476 72.0692C360.279 72.3064 360.061 72.5471 359.824 72.7915L358.124 74.6619H361.75ZM364.208 72.0477L363.172 71.7943L363.599 67.8487H367.834V68.9483H364.678L364.462 70.8725C364.584 70.8007 364.753 70.7306 364.969 70.6623C365.185 70.5905 365.431 70.5545 365.708 70.5545C366.079 70.5545 366.409 70.6156 366.701 70.7378C366.996 70.8564 367.246 71.0307 367.451 71.2606C367.656 71.487 367.813 71.7637 367.921 72.0908C368.028 72.4142 368.083 72.7789 368.083 73.185C368.083 73.5479 368.028 73.8875 367.921 74.2037C367.816 74.5199 367.658 74.7984 367.446 75.0392C367.233 75.28 366.966 75.4686 366.641 75.6052C366.322 75.7381 365.942 75.8046 365.503 75.8046C365.176 75.8046 364.862 75.7579 364.559 75.6645C364.261 75.5674 363.993 75.4255 363.755 75.2386C363.517 75.0482 363.327 74.8146 363.184 74.5379C363.039 74.2576 362.956 73.936 362.935 73.573H364.208C364.24 73.8282 364.311 74.0456 364.419 74.2253C364.53 74.4013 364.678 74.5361 364.862 74.6295C365.045 74.723 365.257 74.7697 365.498 74.7697C365.717 74.7697 365.906 74.732 366.064 74.6565C366.223 74.5774 366.354 74.466 366.458 74.3223C366.566 74.175 366.645 74.0024 366.696 73.8048C366.75 73.6072 366.776 73.388 366.776 73.1472C366.776 72.9172 366.746 72.707 366.685 72.5166C366.627 72.3262 366.54 72.1608 366.42 72.0207C366.305 71.8806 366.16 71.7727 365.983 71.6972C365.807 71.6182 365.604 71.5787 365.374 71.5787C365.064 71.5787 364.827 71.6236 364.662 71.7134C364.5 71.8033 364.349 71.9147 364.208 72.0477ZM369.332 75.05C369.332 74.8487 369.401 74.6798 369.537 74.5433C369.674 74.4032 369.859 74.3331 370.093 74.3331C370.33 74.3331 370.515 74.4032 370.649 74.5433C370.785 74.6798 370.854 74.8487 370.854 75.05C370.854 75.2512 370.785 75.4201 370.649 75.5567C370.515 75.6932 370.33 75.7614 370.093 75.7614C369.859 75.7614 369.674 75.6932 369.537 75.5567C369.401 75.4201 369.332 75.2512 369.332 75.05ZM377.477 71.1152V72.398C377.477 73.0125 377.416 73.5371 377.294 73.9719C377.175 74.4032 377.002 74.7535 376.776 75.023C376.549 75.2925 376.278 75.4902 375.961 75.616C375.648 75.7417 375.297 75.8046 374.909 75.8046C374.6 75.8046 374.312 75.7651 374.046 75.686C373.783 75.607 373.546 75.4829 373.334 75.314C373.121 75.1452 372.94 74.9278 372.788 74.6619C372.641 74.3924 372.526 74.0707 372.443 73.6971C372.364 73.3233 372.324 72.8903 372.324 72.398V71.1152C372.324 70.4971 372.386 69.976 372.508 69.552C372.63 69.1243 372.805 68.7776 373.031 68.5117C373.258 68.2422 373.528 68.0463 373.84 67.9242C374.157 67.8019 374.51 67.7409 374.898 67.7409C375.211 67.7409 375.499 67.7804 375.762 67.8594C376.028 67.9349 376.265 68.0553 376.474 68.2206C376.686 68.3859 376.866 68.6015 377.013 68.8675C377.164 69.1297 377.279 69.4478 377.358 69.8215C377.438 70.1916 377.477 70.6228 377.477 71.1152ZM376.177 72.5812V70.9211C376.177 70.6085 376.159 70.3335 376.123 70.0964C376.087 69.8556 376.033 69.6526 375.961 69.4873C375.893 69.3184 375.807 69.1818 375.702 69.0777C375.598 68.9699 375.479 68.8926 375.346 68.8458C375.213 68.7955 375.064 68.7704 374.898 68.7704C374.697 68.7704 374.517 68.81 374.359 68.889C374.2 68.9644 374.067 69.0867 373.96 69.2556C373.852 69.4244 373.769 69.6472 373.711 69.9239C373.657 70.197 373.63 70.5294 373.63 70.9211V72.5812C373.63 72.8975 373.649 73.176 373.684 73.4167C373.72 73.6575 373.774 73.8641 373.846 74.0366C373.918 74.2055 374.005 74.3457 374.105 74.457C374.209 74.5649 374.328 74.6439 374.461 74.6942C374.598 74.7445 374.747 74.7697 374.909 74.7697C375.114 74.7697 375.296 74.7302 375.454 74.6511C375.612 74.5721 375.745 74.4463 375.853 74.2738C375.961 74.0977 376.042 73.8695 376.096 73.5892C376.15 73.309 376.177 72.973 376.177 72.5812ZM383.837 71.1152V72.398C383.837 73.0125 383.775 73.5371 383.653 73.9719C383.534 74.4032 383.362 74.7535 383.135 75.023C382.909 75.2925 382.637 75.4902 382.321 75.616C382.007 75.7417 381.657 75.8046 381.268 75.8046C380.959 75.8046 380.671 75.7651 380.405 75.686C380.142 75.607 379.905 75.4829 379.693 75.314C379.481 75.1452 379.299 74.9278 379.148 74.6619C379.001 74.3924 378.886 74.0707 378.803 73.6971C378.724 73.3233 378.684 72.8903 378.684 72.398V71.1152C378.684 70.4971 378.745 69.976 378.867 69.552C378.99 69.1243 379.164 68.7776 379.391 68.5117C379.617 68.2422 379.887 68.0463 380.2 67.9242C380.516 67.8019 380.869 67.7409 381.257 67.7409C381.571 67.7409 381.858 67.7804 382.121 67.8594C382.387 67.9349 382.624 68.0553 382.833 68.2206C383.045 68.3859 383.225 68.6015 383.373 68.8675C383.523 69.1297 383.639 69.4478 383.718 69.8215C383.797 70.1916 383.837 70.6228 383.837 71.1152ZM382.536 72.5812V70.9211C382.536 70.6085 382.519 70.3335 382.482 70.0964C382.446 69.8556 382.392 69.6526 382.321 69.4873C382.252 69.3184 382.166 69.1818 382.062 69.0777C381.957 68.9699 381.838 68.8926 381.706 68.8458C381.572 68.7955 381.423 68.7704 381.257 68.7704C381.056 68.7704 380.876 68.81 380.718 68.889C380.56 68.9644 380.426 69.0867 380.319 69.2556C380.211 69.4244 380.128 69.6472 380.07 69.9239C380.017 70.197 379.99 70.5294 379.99 70.9211V72.5812C379.99 72.8975 380.008 73.176 380.043 73.4167C380.08 73.6575 380.133 73.8641 380.205 74.0366C380.277 74.2055 380.364 74.3457 380.464 74.457C380.568 74.5649 380.688 74.6439 380.82 74.6942C380.957 74.7445 381.107 74.7697 381.268 74.7697C381.474 74.7697 381.655 74.7302 381.813 74.6511C381.972 74.5721 382.104 74.4463 382.212 74.2738C382.321 74.0977 382.401 73.8695 382.455 73.5892C382.509 73.309 382.536 72.973 382.536 72.5812Z" fill="white"/>
<path d="M338.472 88.2884V89.1014H334.334V88.4027L336.344 86.2131C336.564 85.9647 336.738 85.7502 336.865 85.5696C336.992 85.3883 337.081 85.2259 337.132 85.0824C337.186 84.9357 337.213 84.793 337.213 84.6542C337.213 84.4594 337.176 84.2891 337.102 84.1417C337.032 83.9926 336.927 83.8751 336.789 83.7908C336.65 83.7033 336.482 83.6591 336.285 83.6591C336.055 83.6591 335.863 83.7088 335.708 83.8073C335.552 83.9059 335.435 84.0431 335.356 84.2181C335.277 84.3908 335.237 84.588 335.237 84.8111H334.215C334.215 84.4523 334.297 84.1251 334.461 83.8286C334.626 83.529 334.862 83.2924 335.173 83.1174C335.484 82.9392 335.859 82.8501 336.297 82.8501C336.709 82.8501 337.06 82.9195 337.349 83.0575C337.637 83.1962 337.855 83.3926 338.005 83.6465C338.158 83.9004 338.234 84.2016 338.234 84.5485C338.234 84.7409 338.203 84.931 338.141 85.1202C338.079 85.3094 337.99 85.4987 337.874 85.6879C337.761 85.874 337.626 86.0617 337.471 86.2509C337.315 86.4378 337.145 86.6262 336.959 86.8186L335.623 88.2884H338.472ZM343.699 87.4203C343.699 87.8043 343.61 88.1276 343.432 88.3901C343.254 88.6527 343.011 88.8514 342.703 88.987C342.398 89.1195 342.053 89.1857 341.668 89.1857C341.284 89.1857 340.938 89.1195 340.63 88.987C340.322 88.8514 340.079 88.6527 339.901 88.3901C339.723 88.1276 339.634 87.8043 339.634 87.4203C339.634 87.1656 339.683 86.9361 339.782 86.7295C339.881 86.5206 340.021 86.3416 340.202 86.1918C340.386 86.0396 340.6 85.9221 340.846 85.8401C341.095 85.7581 341.366 85.7171 341.66 85.7171C342.05 85.7171 342.399 85.7896 342.707 85.9331C343.016 86.0774 343.257 86.2761 343.432 86.5308C343.61 86.7847 343.699 87.0812 343.699 87.4203ZM342.673 87.369C342.673 87.1632 342.631 86.9826 342.546 86.8273C342.462 86.672 342.342 86.5521 342.19 86.467C342.038 86.3826 341.861 86.34 341.66 86.34C341.457 86.34 341.28 86.3826 341.13 86.467C340.98 86.5521 340.863 86.672 340.778 86.8273C340.697 86.9826 340.656 87.1632 340.656 87.369C340.656 87.578 340.697 87.7585 340.778 87.9115C340.86 88.0613 340.978 88.1757 341.13 88.2545C341.283 88.3334 341.462 88.3728 341.668 88.3728C341.875 88.3728 342.053 88.3334 342.203 88.2545C342.353 88.1757 342.469 88.0613 342.55 87.9115C342.632 87.7585 342.673 87.578 342.673 87.369ZM343.559 84.5572C343.559 84.8647 343.477 85.1383 343.313 85.3788C343.152 85.6185 342.929 85.8078 342.644 85.9466C342.358 86.0814 342.033 86.1492 341.668 86.1492C341.301 86.1492 340.973 86.0814 340.685 85.9466C340.4 85.8078 340.175 85.6185 340.011 85.3788C339.85 85.1383 339.769 84.8647 339.769 84.5572C339.769 84.1898 339.85 83.8807 340.011 83.6299C340.175 83.3752 340.4 83.182 340.685 83.0496C340.971 82.9163 341.297 82.8501 341.664 82.8501C342.031 82.8501 342.358 82.9163 342.644 83.0496C342.929 83.182 343.152 83.3752 343.313 83.6299C343.477 83.8807 343.559 84.1898 343.559 84.5572ZM342.537 84.5911C342.537 84.4074 342.501 84.2465 342.428 84.1078C342.357 83.9666 342.256 83.857 342.126 83.7782C341.997 83.6985 341.843 83.6591 341.664 83.6591C341.486 83.6591 341.332 83.6969 341.202 83.7734C341.072 83.8499 340.972 83.9572 340.901 84.0951C340.831 84.2339 340.795 84.3987 340.795 84.5911C340.795 84.7804 340.831 84.9451 340.901 85.0863C340.972 85.2251 341.072 85.3339 341.202 85.4127C341.335 85.4916 341.491 85.531 341.668 85.531C341.847 85.531 342.001 85.4916 342.131 85.4127C342.26 85.3339 342.361 85.2251 342.432 85.0863C342.503 84.9451 342.537 84.7804 342.537 84.5911ZM352.632 85.8488V86.1878C352.632 86.6538 352.572 87.071 352.45 87.4416C352.328 87.8114 352.155 88.126 351.928 88.3854C351.705 88.6456 351.437 88.8443 351.123 88.9831C350.809 89.1179 350.462 89.1857 350.081 89.1857C349.702 89.1857 349.355 89.1179 349.042 88.9831C348.731 88.8443 348.461 88.6456 348.232 88.3854C348.003 88.126 347.825 87.8114 347.698 87.4416C347.573 87.071 347.511 86.6538 347.511 86.1878V85.8488C347.511 85.3828 347.573 84.9664 347.698 84.5998C347.822 84.2292 347.998 83.9146 348.223 83.6552C348.452 83.3926 348.722 83.1931 349.033 83.0575C349.347 82.9195 349.693 82.8501 350.072 82.8501C350.453 82.8501 350.801 82.9195 351.115 83.0575C351.429 83.1931 351.698 83.3926 351.924 83.6552C352.15 83.9146 352.325 84.2292 352.446 84.5998C352.57 84.9664 352.632 85.3828 352.632 85.8488ZM351.568 86.1878V85.8401C351.568 85.4955 351.534 85.192 351.467 84.9294C351.402 84.6644 351.304 84.4429 351.174 84.2647C351.047 84.0841 350.89 83.9485 350.703 83.8586C350.517 83.7648 350.306 83.7182 350.072 83.7182C349.837 83.7182 349.628 83.7648 349.444 83.8586C349.26 83.9485 349.103 84.0841 348.974 84.2647C348.847 84.4429 348.749 84.6644 348.681 84.9294C348.613 85.192 348.579 85.4955 348.579 85.8401V86.1878C348.579 86.5324 348.613 86.8368 348.681 87.1025C348.749 87.3674 348.848 87.5922 348.978 87.7759C349.111 87.9565 349.269 88.0937 349.453 88.1867C349.636 88.2766 349.845 88.3223 350.081 88.3223C350.317 88.3223 350.528 88.2766 350.712 88.1867C350.896 88.0937 351.051 87.9565 351.178 87.7759C351.306 87.5922 351.402 87.3674 351.467 87.1025C351.534 86.8368 351.568 86.5324 351.568 86.1878ZM355.019 82.5962V89.1014H353.994V82.5962H355.019ZM357.868 84.5186L355.872 86.7295L354.778 87.8476L354.511 86.9834L355.337 85.9631L356.635 84.5186H357.868ZM356.855 89.1014L355.367 86.9495L356.011 86.2344L358.038 89.1014H356.855ZM361.015 84.5186V85.2645H358.428V84.5186H361.015ZM359.174 83.3965H360.196V87.835C360.196 87.9762 360.216 88.085 360.255 88.1615C360.298 88.2348 360.356 88.2837 360.429 88.3097C360.502 88.3349 360.589 88.3476 360.688 88.3476C360.758 88.3476 360.826 88.3436 360.891 88.3349C360.956 88.3263 361.008 88.3176 361.049 88.3097L361.052 89.0887C360.967 89.114 360.869 89.1368 360.756 89.1566C360.645 89.1763 360.518 89.1857 360.374 89.1857C360.139 89.1857 359.932 89.1455 359.751 89.0635C359.57 88.9784 359.429 88.8419 359.327 88.6527C359.225 88.4635 359.174 88.2119 359.174 87.8989V83.3965ZM368.832 88.2884V89.1014H364.695V88.4027L366.705 86.2131C366.925 85.9647 367.098 85.7502 367.225 85.5696C367.353 85.3883 367.442 85.2259 367.493 85.0824C367.547 84.9357 367.574 84.793 367.574 84.6542C367.574 84.4594 367.536 84.2891 367.463 84.1417C367.392 83.9926 367.288 83.8751 367.15 83.7908C367.011 83.7033 366.843 83.6591 366.645 83.6591C366.416 83.6591 366.224 83.7088 366.068 83.8073C365.913 83.9059 365.795 84.0431 365.716 84.2181C365.637 84.3908 365.598 84.588 365.598 84.8111H364.576C364.576 84.4523 364.658 84.1251 364.822 83.8286C364.985 83.529 365.223 83.2924 365.534 83.1174C365.845 82.9392 366.219 82.8501 366.657 82.8501C367.07 82.8501 367.42 82.9195 367.708 83.0575C367.997 83.1962 368.216 83.3926 368.366 83.6465C368.518 83.9004 368.595 84.2016 368.595 84.5485C368.595 84.7409 368.564 84.931 368.502 85.1202C368.439 85.3094 368.35 85.4987 368.235 85.6879C368.121 85.874 367.987 86.0617 367.832 86.2509C367.676 86.4378 367.506 86.6262 367.319 86.8186L365.983 88.2884H368.832ZM374.047 85.5018V86.5095C374.047 86.9921 373.999 87.4045 373.903 87.7459C373.81 88.085 373.674 88.3602 373.496 88.5723C373.318 88.7836 373.105 88.9389 372.855 89.0375C372.61 89.1368 372.334 89.1857 372.029 89.1857C371.786 89.1857 371.56 89.155 371.351 89.0927C371.144 89.0304 370.958 88.9334 370.791 88.8009C370.624 88.6677 370.482 88.4974 370.363 88.2884C370.247 88.0763 370.157 87.824 370.092 87.5299C370.03 87.2366 369.998 86.8959 369.998 86.5095V85.5018C369.998 85.0161 370.046 84.6061 370.143 84.2733C370.239 83.9374 370.375 83.6646 370.554 83.4557C370.732 83.2443 370.944 83.0906 371.19 82.9944C371.439 82.8982 371.716 82.8501 372.02 82.8501C372.267 82.8501 372.492 82.8816 372.699 82.9431C372.908 83.0031 373.095 83.0977 373.259 83.227C373.425 83.3571 373.567 83.5266 373.683 83.7356C373.801 83.9414 373.892 84.1913 373.954 84.4855C374.016 84.7756 374.047 85.1147 374.047 85.5018ZM373.025 86.6538V85.3489C373.025 85.1036 373.011 84.8876 372.983 84.7007C372.955 84.5123 372.912 84.3522 372.855 84.2221C372.802 84.0896 372.735 83.9824 372.653 83.9004C372.57 83.816 372.477 83.7553 372.372 83.7182C372.268 83.6788 372.151 83.6591 372.02 83.6591C371.863 83.6591 371.721 83.6906 371.597 83.7521C371.473 83.8121 371.368 83.9075 371.283 84.0407C371.198 84.1732 371.133 84.3483 371.088 84.5659C371.046 84.7804 371.024 85.0413 371.024 85.3489V86.6538C371.024 86.9022 371.038 87.1206 371.067 87.3099C371.095 87.4991 371.137 87.6616 371.194 87.7972C371.251 87.9296 371.319 88.04 371.398 88.1276C371.48 88.2119 371.573 88.2742 371.677 88.3136C371.784 88.3531 371.902 88.3728 372.029 88.3728C372.19 88.3728 372.333 88.342 372.458 88.2797C372.582 88.2174 372.687 88.1189 372.771 87.9833C372.855 87.8453 372.919 87.6655 372.962 87.4455C373.004 87.2255 373.025 86.9614 373.025 86.6538ZM379.491 88.2884V89.1014H375.354V88.4027L377.362 86.2131C377.583 85.9647 377.757 85.7502 377.884 85.5696C378.011 85.3883 378.1 85.2259 378.151 85.0824C378.205 84.9357 378.232 84.793 378.232 84.6542C378.232 84.4594 378.195 84.2891 378.122 84.1417C378.05 83.9926 377.946 83.8751 377.807 83.7908C377.669 83.7033 377.501 83.6591 377.303 83.6591C377.074 83.6591 376.882 83.7088 376.727 83.8073C376.571 83.9059 376.454 84.0431 376.375 84.2181C376.296 84.3908 376.256 84.588 376.256 84.8111H375.234C375.234 84.4523 375.316 84.1251 375.481 83.8286C375.644 83.529 375.882 83.2924 376.193 83.1174C376.503 82.9392 376.878 82.8501 377.316 82.8501C377.728 82.8501 378.079 82.9195 378.367 83.0575C378.656 83.1962 378.875 83.3926 379.024 83.6465C379.177 83.9004 379.253 84.2016 379.253 84.5485C379.253 84.7409 379.223 84.931 379.16 85.1202C379.098 85.3094 379.009 85.4987 378.893 85.6879C378.78 85.874 378.646 86.0617 378.49 86.2509C378.335 86.4378 378.164 86.6262 377.977 86.8186L376.642 88.2884H379.491ZM381.882 85.5562H382.493C382.73 85.5562 382.927 85.5152 383.082 85.434C383.24 85.352 383.358 85.2393 383.433 85.095C383.51 84.9507 383.548 84.7859 383.548 84.5998C383.548 84.4042 383.513 84.2379 383.442 84.0999C383.374 83.9587 383.27 83.8499 383.129 83.7734C382.99 83.6969 382.813 83.6591 382.598 83.6591C382.418 83.6591 382.253 83.6962 382.107 83.7695C381.963 83.8397 381.849 83.9414 381.763 84.0746C381.679 84.204 381.636 84.3593 381.636 84.5399H380.61C380.61 84.2126 380.696 83.9217 380.869 83.6678C381.041 83.4139 381.276 83.2144 381.572 83.0709C381.872 82.9234 382.208 82.8501 382.582 82.8501C382.98 82.8501 383.328 82.9163 383.624 83.0496C383.924 83.1789 384.157 83.3737 384.324 83.6339C384.491 83.8933 384.574 84.2158 384.574 84.5998C384.574 84.7748 384.533 84.9522 384.451 85.1328C384.37 85.3134 384.248 85.479 384.086 85.6288C383.925 85.7754 383.725 85.8953 383.485 85.9883C383.244 86.079 382.966 86.124 382.65 86.124H381.882V85.5562ZM381.882 86.3526V85.7936H382.65C383.011 85.7936 383.319 85.8362 383.574 85.9205C383.83 86.0057 384.04 86.1224 384.201 86.2722C384.362 86.4189 384.479 86.5868 384.553 86.7761C384.629 86.9653 384.667 87.1656 384.667 87.3777C384.667 87.6655 384.615 87.9225 384.511 88.1488C384.409 88.3712 384.263 88.5605 384.074 88.7158C383.884 88.8711 383.662 88.9886 383.408 89.0675C383.156 89.1463 382.883 89.1857 382.586 89.1857C382.321 89.1857 382.066 89.1495 381.822 89.0761C381.579 89.0028 381.362 88.894 381.17 88.7497C380.978 88.603 380.825 88.4209 380.712 88.2033C380.601 87.9833 380.547 87.7294 380.547 87.4416H381.568C381.568 87.6245 381.611 87.7869 381.695 87.9281C381.783 88.0668 381.905 88.1757 382.06 88.2545C382.219 88.3334 382.399 88.3728 382.603 88.3728C382.818 88.3728 383.002 88.3349 383.158 88.2585C383.313 88.182 383.433 88.0692 383.514 87.9194C383.599 87.7704 383.642 87.5898 383.642 87.3777C383.642 87.138 383.594 86.9432 383.501 86.7934C383.408 86.6436 383.276 86.5332 383.103 86.463C382.931 86.3897 382.727 86.3526 382.493 86.3526H381.882Z" fill="white"/>
</g>
</g>
<defs>
<filter id="filter0_d_4477_9779" x="354.336" y="105.66" width="14.3143" height="14.3081" filterUnits="userSpaceOnUse" color-interpolation-filters="sRGB">
<feFlood flood-opacity="0" result="BackgroundImageFix"/>
<feColorMatrix in="SourceAlpha" type="matrix" values="0 0 0 0 0 0 0 0 0 0 0 0 0 0 0 0 0 0 127 0" result="hardAlpha"/>
<feOffset dy="4"/>
<feGaussianBlur stdDeviation="2"/>
<feComposite in2="hardAlpha" operator="out"/>
<feColorMatrix type="matrix" values="0 0 0 0 0 0 0 0 0 0 0 0 0 0 0 0 0 0 0.18 0"/>
<feBlend mode="normal" in2="BackgroundImageFix" result="effect1_dropShadow_4477_9779"/>
<feBlend mode="normal" in="SourceGraphic" in2="effect1_dropShadow_4477_9779" result="shape"/>
</filter>
<filter id="filter1_d_4477_9779" x="311.396" y="51.561" width="96.2464" height="67.0022" filterUnits="userSpaceOnUse" color-interpolation-filters="sRGB">
<feFlood flood-opacity="0" result="BackgroundImageFix"/>
<feColorMatrix in="SourceAlpha" type="matrix" values="0 0 0 0 0 0 0 0 0 0 0 0 0 0 0 0 0 0 127 0" result="hardAlpha"/>
<feOffset dy="7"/>
<feGaussianBlur stdDeviation="6.5"/>
<feComposite in2="hardAlpha" operator="out"/>
<feColorMatrix type="matrix" values="0 0 0 0 0.265139 0 0 0 0 0.289261 0 0 0 0 0.868194 0 0 0 0.08 0"/>
<feBlend mode="normal" in2="BackgroundImageFix" result="effect1_dropShadow_4477_9779"/>
<feBlend mode="normal" in="SourceGraphic" in2="effect1_dropShadow_4477_9779" result="shape"/>
</filter>
<linearGradient id="paint0_linear_4477_9779" x1="331.5" y1="0" x2="331.5" y2="343" gradientUnits="userSpaceOnUse">
<stop stop-color="#FFE4E4"/>
<stop offset="1" stop-color="#FF8186"/>
</linearGradient>
<linearGradient id="paint1_linear_4477_9779" x1="0" y1="108.814" x2="0" y2="343" gradientUnits="userSpaceOnUse">
<stop stop-color="#E83F46"/>
<stop offset="1" stop-color="#ED1D25" stop-opacity="0.16"/>
</linearGradient>
<linearGradient id="paint2_linear_4477_9779" x1="0" y1="196.527" x2="662.353" y2="196.527" gradientUnits="userSpaceOnUse">
<stop stop-color="#FFD3D4" stop-opacity="0"/>
<stop offset="1" stop-color="#ED1D25" stop-opacity="0.33"/>
</linearGradient>
<linearGradient id="paint3_linear_4477_9779" x1="361.098" y1="65.446" x2="361.098" y2="343" gradientUnits="userSpaceOnUse">
<stop stop-color="#ED1D25" stop-opacity="0"/>
<stop offset="1" stop-color="#ED1D25" stop-opacity="0.39"/>
</linearGradient>
<clipPath id="clip0_4477_9779">
<rect width="663" height="343" rx="20" fill="white"/>
</clipPath>
</defs>
</svg>
