<svg width="11" height="11" viewBox="0 0 11 11" fill="none" xmlns="http://www.w3.org/2000/svg">
<g clip-path="url(#clip0_3823_54437)">
<path d="M10.5417 5.8361V2.8111H7.51672" stroke="#ED1D25" stroke-linecap="round" stroke-linejoin="round"/>
<path d="M10.5417 2.8111L6.98386 6.36894C6.92143 6.43141 6.84731 6.48097 6.76572 6.51478C6.68414 6.54858 6.59669 6.56599 6.50837 6.56599C6.42006 6.56599 6.33261 6.54858 6.25103 6.51478C6.16944 6.48097 6.09532 6.43141 6.03289 6.36894L4.63108 4.96714C4.56865 4.90467 4.49453 4.85512 4.41294 4.82131C4.33136 4.7875 4.24391 4.7701 4.1556 4.7701C4.06728 4.7701 3.97983 4.7875 3.89825 4.82131C3.81666 4.85512 3.74254 4.90467 3.68011 4.96714L0.458374 8.18887" stroke="#ED1D25" stroke-linecap="round" stroke-linejoin="round"/>
</g>
<defs>
<clipPath id="clip0_3823_54437">
<rect width="11" height="11" fill="white"/>
</clipPath>
</defs>
</svg>
