<?xml version="1.0" encoding="UTF-8"?>
<svg id="Layer_1" xmlns="http://www.w3.org/2000/svg" version="1.1" viewBox="0 0 31.88 32">
  <!-- Generator: Adobe Illustrator 29.6.1, SVG Export Plug-In . SVG Version: 2.1.1 Build 9)  -->
  <path d="M9,8.67c-.21-.69-.84-1.16-1.56-1.16H2.6c-.52,0-1,.24-1.31.66-.31.41-.4.95-.25,1.45,1.21,4.01,3.8,12.61,4.74,15.73.21.69.84,1.16,1.56,1.16h4.83c.52,0,1-.24,1.31-.66.31-.41.4-.95.25-1.45-1.21-4.01-3.8-12.61-4.74-15.73Z" fill="#ed1d25" fill-rule="evenodd"/>
  <path d="M18.94,8.67c-.21-.69-.84-1.16-1.56-1.16h-4.83c-.52,0-1,.24-1.31.66-.31.41-.4.95-.25,1.45.96,3.19,2.75,9.13,3.51,11.63.21.69.84,1.16,1.56,1.16h4.83c.52,0,1-.24,1.31-.66.31-.41.4-.95.25-1.45-.96-3.19-2.75-9.13-3.51-11.63Z" fill="#ed1d25" fill-rule="evenodd"/>
  <path d="M28.96,8.67c-.21-.69-.84-1.16-1.56-1.16h-4.83c-.52,0-1,.24-1.31.66-.31.41-.4.95-.25,1.45.58,1.92,1.41,4.68,1.88,6.23.21.69.84,1.16,1.56,1.16h4.83c.52,0,1-.24,1.31-.66.31-.41.4-.95.25-1.45-.58-1.92-1.41-4.68-1.88-6.23Z" fill="#ed1d25" fill-rule="evenodd"/>
</svg>