<svg width="160" height="46" viewBox="0 0 160 46" fill="none" xmlns="http://www.w3.org/2000/svg">
<path fill-rule="evenodd" clip-rule="evenodd" d="M14.1411 7.8416C13.7749 6.62668 12.6558 5.79517 11.3871 5.79517C9.15456 5.79517 5.60387 5.79517 2.87634 5.79517C1.96659 5.79517 1.11034 6.22574 0.567595 6.95601C0.0251387 7.68628 -0.140244 8.63026 0.122355 9.50118C2.24875 16.5569 6.81361 31.7042 8.47002 37.2012C8.83617 38.4162 9.95531 39.2477 11.224 39.2477C13.4568 39.2477 17.0072 39.2477 19.7348 39.2477C20.6445 39.2477 21.5008 38.8171 22.0435 38.0868C22.5863 37.3566 22.7513 36.4126 22.4887 35.5414C20.3624 28.486 15.7975 13.3384 14.1411 7.8416Z" fill="#ED1D25"/>
<path fill-rule="evenodd" clip-rule="evenodd" d="M31.6372 7.8416C31.2711 6.62668 30.1522 5.79517 28.8832 5.79517C26.6507 5.79517 23.1 5.79517 20.3725 5.79517C19.4627 5.79517 18.6065 6.22574 18.0637 6.95601C17.5213 7.68628 17.3562 8.63026 17.6185 9.50118C19.3094 15.1124 22.4629 25.5761 23.7929 29.9888C24.1587 31.2037 25.2779 32.0353 26.5466 32.0353C28.7794 32.0353 32.3298 32.0353 35.0573 32.0353C35.9674 32.0353 36.8233 31.6047 37.3661 30.8744C37.9088 30.1441 38.0739 29.2002 37.8113 28.329C36.1204 22.718 32.9669 12.254 31.6372 7.8416Z" fill="#ED1D25"/>
<path fill-rule="evenodd" clip-rule="evenodd" d="M49.2933 7.8416C48.9272 6.62668 47.8084 5.79517 46.5394 5.79517C44.3068 5.79517 40.7564 5.79517 38.0286 5.79517C37.1189 5.79517 36.2626 6.22574 35.7202 6.95601C35.1774 7.68628 35.0123 8.63026 35.2749 9.50118C36.2934 12.8807 37.7605 17.7499 38.582 20.4751C38.9479 21.6901 40.067 22.5213 41.3357 22.5213C43.5685 22.5213 47.1189 22.5213 49.8464 22.5213C50.7565 22.5213 51.6124 22.091 52.1552 21.3607C52.6979 20.6304 52.863 19.6865 52.6004 18.8153C51.582 15.4357 50.1145 10.5665 49.2933 7.8416Z" fill="#ED1D25"/>
<path d="M155.767 8.16312C156.591 6.29413 158.268 5.60699 159.999 5.60699V8.82277C158.048 8.68535 155.767 9.59236 155.767 12.6707V19.597H152.798V5.85436H155.767V8.16312Z" fill="black"/>
<path d="M139.137 13.9901C139.604 16.1339 141.336 17.2333 143.535 17.2333C145.184 17.2333 146.421 16.4912 147.08 15.5293L149.527 16.9585C148.262 18.8275 146.201 19.9544 143.507 19.9544C138.972 19.9544 136.031 16.8486 136.031 12.7258C136.031 8.65794 138.972 5.49713 143.287 5.49713C147.383 5.49713 150.186 8.79537 150.186 12.7532C150.186 13.1655 150.131 13.6053 150.076 13.9901H139.137ZM139.11 11.5714H147.19C146.778 9.20764 145.046 8.19069 143.26 8.19069C141.034 8.19069 139.522 9.50998 139.11 11.5714Z" fill="black"/>
<path d="M131.87 3.79297C130.825 3.79297 129.973 2.91344 129.973 1.89648C129.973 0.852044 130.825 0 131.87 0C132.914 0 133.766 0.852044 133.766 1.89648C133.766 2.91344 132.914 3.79297 131.87 3.79297ZM130.386 19.597V5.85437H133.354V19.597H130.386Z" fill="black"/>
<path d="M122.014 5.49713C125.12 5.49713 127.209 7.64098 127.209 11.0766V19.5971H124.24V11.269C124.24 9.34507 123.196 8.27314 121.574 8.27314C119.815 8.27314 118.579 9.40004 118.579 11.9012V19.5971H115.61V11.269C115.61 9.34507 114.648 8.27314 113.026 8.27314C111.35 8.27314 109.976 9.40004 109.976 11.9012V19.5971H107.007V5.85444H109.976V7.50356C110.855 6.15678 112.202 5.49713 113.906 5.49713C115.693 5.49713 117.012 6.2942 117.809 7.66847C118.716 6.23923 120.173 5.49713 122.014 5.49713Z" fill="black"/>
<path d="M93.3459 13.9901C93.8132 16.1339 95.5448 17.2333 97.7436 17.2333C99.3927 17.2333 100.63 16.4912 101.289 15.5293L103.735 16.9585C102.471 18.8275 100.41 19.9544 97.7161 19.9544C93.181 19.9544 90.2401 16.8486 90.2401 12.7258C90.2401 8.65794 93.181 5.49713 97.4962 5.49713C101.592 5.49713 104.395 8.79537 104.395 12.7532C104.395 13.1655 104.34 13.6053 104.285 13.9901H93.3459ZM93.3185 11.5714H101.399C100.987 9.20764 99.2553 8.19069 97.4687 8.19069C95.2424 8.19069 93.7307 9.50998 93.3185 11.5714Z" fill="black"/>
<path d="M85.2286 8.16312C86.0532 6.29413 87.7298 5.60699 89.4613 5.60699V8.82277C87.5099 8.68535 85.2286 9.59236 85.2286 12.6707V19.597H82.2602V5.85436H85.2286V8.16312Z" fill="black"/>
<path d="M72.7258 5.49713C76.4638 5.49713 79.5696 8.65794 79.5696 12.7258C79.5696 16.8211 76.4638 19.9544 72.7258 19.9544C70.582 19.9544 68.9603 19.0749 67.9159 17.6456V25.0941H64.9475V5.85444H67.9159V7.83338C68.9603 6.37666 70.582 5.49713 72.7258 5.49713ZM72.2586 17.1234C74.7322 17.1234 76.6012 15.2819 76.6012 12.7258C76.6012 10.1696 74.7322 8.32812 72.2586 8.32812C69.7849 8.32812 67.9159 10.1696 67.9159 12.7258C67.9159 15.2819 69.7849 17.1234 72.2586 17.1234Z" fill="black"/>
<path d="M152.031 35.2845C152.031 37.6745 159.096 36.23 159.096 41.0888C159.096 43.7152 156.811 45.1334 153.975 45.1334C151.348 45.1334 149.458 43.9516 148.617 42.0606L151.06 40.6423C151.48 41.8242 152.53 42.5333 153.975 42.5333C155.236 42.5333 156.207 42.1131 156.207 41.0626C156.207 38.7251 149.142 40.0383 149.142 35.3371C149.142 32.8683 151.27 31.3187 153.949 31.3187C156.102 31.3187 157.888 32.3167 158.807 34.0502L156.417 35.3896C155.945 34.3653 155.025 33.8926 153.949 33.8926C152.924 33.8926 152.031 34.3391 152.031 35.2845Z" fill="black"/>
<path d="M147.398 34.3916H144.141V40.6949C144.141 42.3757 145.244 42.3495 147.398 42.2444V44.792C143.038 45.3173 141.305 44.1091 141.305 40.6949V34.3916H138.889V31.6601H141.305V28.8237L144.141 27.9832V31.6601H147.398V34.3916Z" fill="black"/>
<path d="M127.428 39.4342C127.875 41.4828 129.529 42.5333 131.63 42.5333C133.206 42.5333 134.388 41.8242 135.018 40.905L137.356 42.2707C136.148 44.0566 134.178 45.1334 131.604 45.1334C127.271 45.1334 124.46 42.1656 124.46 38.2261C124.46 34.3391 127.271 31.3187 131.394 31.3187C135.307 31.3187 137.986 34.4704 137.986 38.2523C137.986 38.6463 137.934 39.0665 137.881 39.4342H127.428ZM127.402 37.123H135.123C134.729 34.8643 133.075 33.8926 131.368 33.8926C129.24 33.8926 127.796 35.1532 127.402 37.123Z" fill="black"/>
<path d="M124.339 44.7919H120.951L115.567 38.725V44.7919H112.73V26.4073H115.567V37.4643L120.662 31.66H124.129L118.351 38.0946L124.339 44.7919Z" fill="black"/>
<path d="M106.59 33.8662C107.378 32.0802 108.98 31.4236 110.635 31.4236V34.4965C108.77 34.3652 106.59 35.2319 106.59 38.1734V44.7919H103.754V31.66H106.59V33.8662Z" fill="black"/>
<path d="M97.6113 31.6602H100.448V44.792H97.6113V42.901C96.6133 44.293 95.0637 45.1334 93.0152 45.1334C89.4433 45.1334 86.4755 42.1131 86.4755 38.2261C86.4755 34.3128 89.4433 31.3187 93.0152 31.3187C95.0637 31.3187 96.6133 32.1592 97.6113 33.5249V31.6602ZM93.4616 42.4283C95.8254 42.4283 97.6113 40.6686 97.6113 38.2261C97.6113 35.7836 95.8254 34.0239 93.4616 34.0239C91.0979 34.0239 89.312 35.7836 89.312 38.2261C89.312 40.6686 91.0979 42.4283 93.4616 42.4283Z" fill="black"/>
<path d="M79.2108 31.3187C82.1786 31.3187 84.1747 33.3673 84.1747 36.6503V44.792H81.3382V36.8341C81.3382 34.9956 80.3402 33.9714 78.7906 33.9714C77.1097 33.9714 75.9279 35.0482 75.9279 37.4382V44.792H73.0914V36.8341C73.0914 34.9956 72.1722 33.9714 70.6226 33.9714C69.0205 33.9714 67.7073 35.0482 67.7073 37.4382V44.792H64.8708V31.6602H67.7073V33.236C68.5478 31.9491 69.8347 31.3187 71.463 31.3187C73.1702 31.3187 74.4308 32.0804 75.1925 33.3936C76.0592 32.0278 77.4512 31.3187 79.2108 31.3187Z" fill="black"/>
</svg>
