<svg width="24" height="26" viewBox="0 0 24 26" fill="none" xmlns="http://www.w3.org/2000/svg">
<path opacity="0.35" d="M12.0003 13.3333C15.6822 13.3333 18.667 10.3486 18.667 6.66667C18.667 2.98477 15.6822 0 12.0003 0C8.31839 0 5.33362 2.98477 5.33362 6.66667C5.33362 10.3486 8.31839 13.3333 12.0003 13.3333Z" fill="url(#paint0_linear_9018_1152)"/>
<path d="M20 17.3334H4C1.79067 17.3334 0 19.124 0 21.3334C0 23.5427 1.79067 25.3334 4 25.3334H20C22.2093 25.3334 24 23.5427 24 21.3334C24 19.124 22.2093 17.3334 20 17.3334Z" fill="url(#paint1_linear_9018_1152)"/>
<defs>
<linearGradient id="paint0_linear_9018_1152" x1="7.50029" y1="-0.171654" x2="15.203" y2="11.1555" gradientUnits="userSpaceOnUse">
<stop stop-color="#FFDDDE"/>
<stop offset="1" stop-color="#ED1D25"/>
</linearGradient>
<linearGradient id="paint1_linear_9018_1152" x1="12" y1="17.3334" x2="12" y2="25.3334" gradientUnits="userSpaceOnUse">
<stop stop-color="#E4030C"/>
<stop offset="1" stop-color="#ED1D25"/>
</linearGradient>
</defs>
</svg>
